<svg id="Layer_1" data-name="Layer 1" xmlns="http://www.w3.org/2000/svg" viewBox="0 0 1279.67 584.8"><defs><style>.cls-1{fill:#3976ff;}</style></defs><title>southhall</title><polygon class="cls-1" points="14.85 582.67 14.85 555.9 19.72 555.9 19.72 577.8 1263.33 577.8 1263.33 555.9 1268.19 555.9 1268.19 582.67 14.85 582.67"/><polygon class="cls-1" points="976 556.4 813.71 556.4 813.71 551.53 971.13 551.53 971.13 178.59 309.81 178.59 309.81 551.53 464.47 551.53 464.47 556.4 304.95 556.4 304.95 173.72 976 173.72 976 556.4"/><path class="cls-1" d="M1044,431.23H371.68l27.85-126.61h614.08Zm-666.24-4.86h660.07l-28-116.89H403.44Z" transform="translate(-67.33 -253.27)"/><polygon class="cls-1" points="531.4 25.48 524.98 2.43 494.56 2.43 488.13 25.48 485.79 24.83 492.71 0 526.82 0 533.75 24.83 531.4 25.48"/><path class="cls-1" d="M597.51,306.49H556.69V290.76h40.82Zm-38.39-2.43h36V293.2h-36Z" transform="translate(-67.33 -253.27)"/><path class="cls-1" d="M597.46,291.5H556.73l-4.1-13.1h48.93Zm-38.94-2.43h37.15l2.58-8.24H556Z" transform="translate(-67.33 -253.27)"/><rect class="cls-1" x="307.24" y="160.81" width="666.33" height="2.43"/><path class="cls-1" d="M475.41,416H449.53V368.69a12.94,12.94,0,1,1,25.88,0ZM452,413.6h21V368.69a10.51,10.51,0,1,0-21,0Z" transform="translate(-67.33 -253.27)"/><path class="cls-1" d="M481.72,416.25H443.29V366.84a19.22,19.22,0,1,1,38.43,0Zm-36-2.43h33.57v-47a16.79,16.79,0,1,0-33.57,0Z" transform="translate(-67.33 -253.27)"/><path class="cls-1" d="M470.43,350.24H468a5.49,5.49,0,0,0-11,0h-2.43a7.93,7.93,0,0,1,15.85,0Z" transform="translate(-67.33 -253.27)"/><path class="cls-1" d="M496.91,416H483.83V382.7h13.08Zm-10.65-2.43h8.21V385.14h-8.21Z" transform="translate(-67.33 -253.27)"/><path class="cls-1" d="M531.13,416.45H505.25V369.11a12.94,12.94,0,1,1,25.88,0ZM507.68,414h21V369.11a10.51,10.51,0,1,0-21,0Z" transform="translate(-67.33 -253.27)"/><path class="cls-1" d="M537.44,416.67H499V367.25a19.22,19.22,0,0,1,38.43,0Zm-36-2.43H535v-47a16.79,16.79,0,0,0-33.57,0Z" transform="translate(-67.33 -253.27)"/><path class="cls-1" d="M526.15,350.66h-2.44a5.49,5.49,0,1,0-11,0H510.3a7.93,7.93,0,0,1,15.85,0Z" transform="translate(-67.33 -253.27)"/><path class="cls-1" d="M552.3,415.57H539.21V382.24H552.3Zm-10.65-2.43h8.21V384.68h-8.21Z" transform="translate(-67.33 -253.27)"/><path class="cls-1" d="M586.23,416.25H560.34V368.9a12.95,12.95,0,0,1,25.89,0Zm-23.46-2.43h21V368.9a10.51,10.51,0,0,0-21,0Z" transform="translate(-67.33 -253.27)"/><path class="cls-1" d="M592.53,416.47H554.1V367.05a19.22,19.22,0,0,1,38.43,0Zm-36-2.44H590.1v-47a16.78,16.78,0,1,0-33.56,0Z" transform="translate(-67.33 -253.27)"/><path class="cls-1" d="M581.24,350.46h-2.43a5.49,5.49,0,1,0-11,0H565.4a7.92,7.92,0,0,1,15.84,0Z" transform="translate(-67.33 -253.27)"/><rect class="cls-1" x="413.17" y="119.21" width="19.72" height="2.43"/><rect class="cls-1" x="468.56" y="119.21" width="19.72" height="2.43"/><rect class="cls-1" x="383.55" y="119.05" width="22.82" height="2.43"/><rect class="cls-1" x="383.55" y="139.44" width="22.82" height="2.43"/><rect class="cls-1" x="393.89" y="104.15" width="2.43" height="57.5"/><rect class="cls-1" x="439.53" y="119.05" width="22.82" height="2.43"/><rect class="cls-1" x="439.53" y="139.44" width="22.82" height="2.43"/><rect class="cls-1" x="449.87" y="104.15" width="2.43" height="57.5"/><rect class="cls-1" x="494.28" y="119.05" width="22.82" height="2.43"/><rect class="cls-1" x="494.28" y="139.44" width="22.82" height="2.43"/><rect class="cls-1" x="504.63" y="104.15" width="2.43" height="57.5"/><path class="cls-1" d="M444.19,381.75h-5.48a4.87,4.87,0,0,1,0-9.73h5.48v2.43h-5.48a2.44,2.44,0,0,0,0,4.87h5.48Z" transform="translate(-67.33 -253.27)"/><path class="cls-1" d="M596.9,380.84h-5.47v-2.43h5.47a2.44,2.44,0,1,0,0-4.87h-5.47v-2.43h5.47a4.87,4.87,0,1,1,0,9.73Z" transform="translate(-67.33 -253.27)"/><polyline class="cls-1" points="789.8 581.16 789.8 572.64 484.99 572.64 484.99 570.21 792.24 570.21 792.24 583.59"/><line class="cls-1" x1="484.99" y1="583.59" x2="484.99" y2="581.16"/><path class="cls-1" d="M664.06,825.91H632.83V776h31.23Zm-28.79-2.43h26.36v-45H635.27Z" transform="translate(-67.33 -253.27)"/><path class="cls-1" d="M668.22,778.45H629l3-13.38h33.28ZM632,776h33.16l-1.89-8.52H633.91Z" transform="translate(-67.33 -253.27)"/><path class="cls-1" d="M661.66,767.5H635.24V754.12h26.42Zm-24-2.43h21.55v-8.52H637.67Z" transform="translate(-67.33 -253.27)"/><path class="cls-1" d="M657.18,756.55H640V733.46h17.16Zm-14.73-2.43h12.3V735.9h-12.3Z" transform="translate(-67.33 -253.27)"/><path class="cls-1" d="M658.89,814.86H638V781.32h20.87Zm-18.44-2.43h16V783.75h-16Z" transform="translate(-67.33 -253.27)"/><rect class="cls-1" x="593.08" y="509.37" width="94.1" height="2.43"/><rect class="cls-1" x="591.87" y="501.32" width="94.1" height="2.43"/><rect class="cls-1" x="546.18" y="771.17" width="102.56" height="2.43" transform="translate(-364.97 128.81) rotate(-28.72)"/><rect class="cls-1" x="546.29" y="785.76" width="95.65" height="2.43" transform="translate(-370.79 125.46) rotate(-28.49)"/><rect class="cls-1" x="546.18" y="764.48" width="102.56" height="2.43" transform="translate(-361.75 127.99) rotate(-28.72)"/><path class="cls-1" d="M531.4,838.07V781.48h22.7v56.59m-2.43-2.43V783.92H533.83v51.72" transform="translate(-67.33 -253.27)"/><path class="cls-1" d="M542.75,766.1a9,9,0,1,1,9-9A9,9,0,0,1,542.75,766.1Zm0-15.58a6.57,6.57,0,1,0,6.57,6.57A6.58,6.58,0,0,0,542.75,750.52Z" transform="translate(-67.33 -253.27)"/><path class="cls-1" d="M552.1,760.4H533.4a2.74,2.74,0,0,1-2.74-2.73v-1.15a2.74,2.74,0,0,1,2.74-2.74h18.7a2.74,2.74,0,0,1,2.74,2.74v1.15A2.74,2.74,0,0,1,552.1,760.4Zm-18.7-4.18a.31.31,0,0,0-.31.3v1.15a.31.31,0,0,0,.31.3h18.7a.31.31,0,0,0,.31-.3v-1.15a.31.31,0,0,0-.31-.3Z" transform="translate(-67.33 -253.27)"/><path class="cls-1" d="M545.75,772h-6v-8.3h6Zm-3.56-2.43h1.12V766.1h-1.12Z" transform="translate(-67.33 -253.27)"/><path class="cls-1" d="M551.76,778.28h-2.44a6.57,6.57,0,0,0-13.14,0h-2.43a9,9,0,1,1,18,0Z" transform="translate(-67.33 -253.27)"/><path class="cls-1" d="M542.75,748a4.32,4.32,0,1,1,4.31-4.31A4.32,4.32,0,0,1,542.75,748Zm0-6.19a1.88,1.88,0,1,0,1.88,1.88A1.88,1.88,0,0,0,542.75,741.82Z" transform="translate(-67.33 -253.27)"/><path class="cls-1" d="M555.78,784.08H529.72A3.12,3.12,0,0,1,526.6,781v-1.43a3.12,3.12,0,0,1,3.12-3.12h26.06a3.12,3.12,0,0,1,3.12,3.12V781A3.12,3.12,0,0,1,555.78,784.08Zm-26.06-5.23a.69.69,0,0,0-.68.68V781a.69.69,0,0,0,.68.69h26.06a.7.7,0,0,0,.69-.69v-1.43a.7.7,0,0,0-.69-.68Z" transform="translate(-67.33 -253.27)"/><path class="cls-1" d="M649.22,718.64a9,9,0,1,1,9-9A9,9,0,0,1,649.22,718.64Zm0-15.58a6.58,6.58,0,1,0,6.58,6.58A6.58,6.58,0,0,0,649.22,703.06Z" transform="translate(-67.33 -253.27)"/><path class="cls-1" d="M658.58,713H639.87a2.74,2.74,0,0,1-2.74-2.74v-1.15a2.74,2.74,0,0,1,2.74-2.73h18.71a2.74,2.74,0,0,1,2.74,2.73v1.15A2.74,2.74,0,0,1,658.58,713Zm-18.71-4.19a.31.31,0,0,0-.3.3v1.15a.31.31,0,0,0,.3.3h18.71a.31.31,0,0,0,.3-.3v-1.15a.31.31,0,0,0-.3-.3Z" transform="translate(-67.33 -253.27)"/><path class="cls-1" d="M652.22,724.5h-6v-8.29h6Zm-3.56-2.43h1.13v-3.43h-1.13Z" transform="translate(-67.33 -253.27)"/><path class="cls-1" d="M658.23,730.82H655.8a6.58,6.58,0,0,0-13.15,0h-2.43a9,9,0,0,1,18,0Z" transform="translate(-67.33 -253.27)"/><path class="cls-1" d="M649.22,700.55a4.31,4.31,0,1,1,4.32-4.31A4.32,4.32,0,0,1,649.22,700.55Zm0-6.19a1.88,1.88,0,1,0,1.88,1.88A1.88,1.88,0,0,0,649.22,694.36Z" transform="translate(-67.33 -253.27)"/><path class="cls-1" d="M780.72,825.39H749.49V775.5h31.23ZM751.92,823h26.37v-45H751.92Z" transform="translate(-67.33 -253.27)"/><path class="cls-1" d="M784.88,777.94H745.64l3-13.39H781.9Zm-36.2-2.44h33.16L780,767H750.57Z" transform="translate(-67.33 -253.27)"/><path class="cls-1" d="M778.32,767H751.9V753.6h26.42Zm-24-2.44h21.55V756H754.33Z" transform="translate(-67.33 -253.27)"/><path class="cls-1" d="M773.84,756H756.68V733h17.16Zm-14.73-2.43h12.3V735.38h-12.3Z" transform="translate(-67.33 -253.27)"/><path class="cls-1" d="M775.55,814.34H754.67V780.8h20.88Zm-18.44-2.43h16V783.24h-16Z" transform="translate(-67.33 -253.27)"/><path class="cls-1" d="M765.88,718.12a9,9,0,1,1,9-9A9,9,0,0,1,765.88,718.12Zm0-15.57a6.57,6.57,0,1,0,6.58,6.57A6.58,6.58,0,0,0,765.88,702.55Z" transform="translate(-67.33 -253.27)"/><path class="cls-1" d="M775.24,712.43H756.53a2.74,2.74,0,0,1-2.74-2.74v-1.14a2.74,2.74,0,0,1,2.74-2.74h18.71a2.74,2.74,0,0,1,2.74,2.74v1.14A2.74,2.74,0,0,1,775.24,712.43Zm-18.71-4.19a.31.31,0,0,0-.3.31v1.14a.31.31,0,0,0,.3.31h18.71a.31.31,0,0,0,.3-.31v-1.14a.31.31,0,0,0-.3-.31Z" transform="translate(-67.33 -253.27)"/><path class="cls-1" d="M768.88,724h-6v-8.3h6Zm-3.56-2.44h1.13v-3.43h-1.13Z" transform="translate(-67.33 -253.27)"/><path class="cls-1" d="M774.89,730.31h-2.43a6.58,6.58,0,1,0-13.15,0h-2.43a9,9,0,1,1,18,0Z" transform="translate(-67.33 -253.27)"/><path class="cls-1" d="M765.88,700a4.32,4.32,0,1,1,4.32-4.32A4.33,4.33,0,0,1,765.88,700Zm0-6.2a1.88,1.88,0,1,0,1.88,1.88A1.88,1.88,0,0,0,765.88,693.84Z" transform="translate(-67.33 -253.27)"/><rect class="cls-1" x="814.87" y="718.27" width="2.43" height="102.56" transform="translate(-318.19 862.44) rotate(-61.29)"/><rect class="cls-1" x="818.22" y="736.31" width="2.43" height="95.65" transform="translate(-327.97 876.96) rotate(-61.51)"/><rect class="cls-1" x="814.87" y="711.57" width="2.43" height="102.56" transform="translate(-312.32 858.96) rotate(-61.29)"/><path class="cls-1" d="M882.09,837h-22.7V780.39h22.7Zm-20.27-2.43h17.84V782.82H861.82Z" transform="translate(-67.33 -253.27)"/><path class="cls-1" d="M870.74,765a9,9,0,1,1,9-9A9,9,0,0,1,870.74,765Zm0-15.58a6.58,6.58,0,1,0,6.57,6.57A6.58,6.58,0,0,0,870.74,749.42Z" transform="translate(-67.33 -253.27)"/><path class="cls-1" d="M880.09,759.3h-18.7a2.74,2.74,0,0,1-2.74-2.73v-1.15a2.74,2.74,0,0,1,2.74-2.74h18.7a2.74,2.74,0,0,1,2.74,2.74v1.15A2.74,2.74,0,0,1,880.09,759.3Zm-18.7-4.18a.31.31,0,0,0-.31.3v1.15a.31.31,0,0,0,.31.3h18.7a.31.31,0,0,0,.31-.3v-1.15a.31.31,0,0,0-.31-.3Z" transform="translate(-67.33 -253.27)"/><path class="cls-1" d="M873.74,770.86h-6v-8.29h6Zm-3.56-2.43h1.12V765h-1.12Z" transform="translate(-67.33 -253.27)"/><path class="cls-1" d="M879.75,777.18h-2.44a6.57,6.57,0,1,0-13.14,0h-2.44a9,9,0,0,1,18,0Z" transform="translate(-67.33 -253.27)"/><path class="cls-1" d="M870.74,746.91a4.31,4.31,0,1,1,4.31-4.31A4.31,4.31,0,0,1,870.74,746.91Zm0-6.19a1.88,1.88,0,1,0,1.88,1.88A1.88,1.88,0,0,0,870.74,740.72Z" transform="translate(-67.33 -253.27)"/><path class="cls-1" d="M883.77,783H857.71a3.12,3.12,0,0,1-3.12-3.11v-1.43a3.12,3.12,0,0,1,3.12-3.12h26.06a3.12,3.12,0,0,1,3.12,3.12v1.43A3.12,3.12,0,0,1,883.77,783Zm-26.06-5.23a.7.7,0,0,0-.69.69v1.43a.7.7,0,0,0,.69.68h26.06a.69.69,0,0,0,.68-.68v-1.43a.69.69,0,0,0-.68-.69Z" transform="translate(-67.33 -253.27)"/><path class="cls-1" d="M776.26,735.39H636.79a3.12,3.12,0,0,1-3.12-3.12V732a3.12,3.12,0,0,1,3.12-3.12H776.26a3.12,3.12,0,0,1,3.12,3.12v.28A3.12,3.12,0,0,1,776.26,735.39ZM636.79,731.3a.7.7,0,0,0-.69.69v.28a.7.7,0,0,0,.69.68H776.26a.7.7,0,0,0,.69-.68V732a.7.7,0,0,0-.69-.69Z" transform="translate(-67.33 -253.27)"/><path class="cls-1" d="M691.62,818.62H671.13V768.54h20.49Zm-18.06-2.44h15.62V771H673.56Z" transform="translate(-67.33 -253.27)"/><path class="cls-1" d="M716.63,818.92H696.14V768.85h20.49Zm-18-2.43H714.2V771.28H698.58Z" transform="translate(-67.33 -253.27)"/><path class="cls-1" d="M741.94,818.62H721.45V768.54h20.49Zm-18.05-2.44h15.62V771H723.89Z" transform="translate(-67.33 -253.27)"/><path class="cls-1" d="M626.51,820.75H606V787l20.48-11.05Zm-18-2.44h15.62V780l-15.62,8.42Z" transform="translate(-67.33 -253.27)"/><path class="cls-1" d="M601.87,820.14h-40l.13-9.45,39.84-22Zm-37.5-2.43h35.07v-24.9l-35,19.33Z" transform="translate(-67.33 -253.27)"/><path class="cls-1" d="M808.74,819.53H788.25V774.72l20.49,11Zm-18.06-2.43H806.3V787.22l-15.62-8.42Z" transform="translate(-67.33 -253.27)"/><path class="cls-1" d="M852.86,818.92h-40V787.47l39.85,22Zm-37.54-2.43H850.4l-.08-5.57-35-19.32Z" transform="translate(-67.33 -253.27)"/><rect class="cls-1" x="814.44" y="504.79" width="158.67" height="2.43"/><path class="cls-1" d="M792.46,602H625.94v-10.5H792.46Zm-164.08-2.43H790v-5.64H628.38Z" transform="translate(-67.33 -253.27)"/><path class="cls-1" d="M670.65,593.7h-21V576.61h21Zm-18.59-2.44h16.15V579.05H652.06Z" transform="translate(-67.33 -253.27)"/><path class="cls-1" d="M781.85,579H636.24V572.6H781.85Zm-143.18-2.43H779.42V575H638.67Z" transform="translate(-67.33 -253.27)"/><path class="cls-1" d="M652.17,593.39h-13.5V576.31h13.5ZM641.11,591h8.63V578.74h-8.63Z" transform="translate(-67.33 -253.27)"/><polygon class="cls-1" points="601.2 477.39 598.77 477.35 599.97 409.22 573.19 409.22 572 477.39 569.57 477.35 570.8 406.79 602.44 406.79 601.2 477.39"/><path class="cls-1" d="M673.6,662.09H634.06v-8.72H673.6Zm-37.11-2.44h34.68V655.8H636.49Z" transform="translate(-67.33 -253.27)"/><path class="cls-1" d="M668.87,654.9H650.28V600h18.59Zm-16.16-2.43h13.73v-50H652.71Z" transform="translate(-67.33 -253.27)"/><path class="cls-1" d="M652.2,655H637.76V600.28H652.2Zm-12-2.43h9.56V602.71H640.2Z" transform="translate(-67.33 -253.27)"/><path class="cls-1" d="M648.53,649.33h-6.7v-43.9h6.7Zm-4.26-2.43h1.82v-39h-1.82Z" transform="translate(-67.33 -253.27)"/><polygon class="cls-1" points="708.08 479.42 706.88 408.82 680.12 408.82 681.31 476.94 678.88 476.98 677.64 406.38 709.28 406.38 710.51 479.38 708.08 479.42"/><path class="cls-1" d="M780.68,661.68H741.14V653h39.54Zm-37.11-2.43h34.68V655.4H743.57Z" transform="translate(-67.33 -253.27)"/><path class="cls-1" d="M764.46,654.5H745.87V599.64h18.59Zm-16.16-2.44H762v-50H748.3Z" transform="translate(-67.33 -253.27)"/><path class="cls-1" d="M777,654.61H762.54V599.87H777Zm-12-2.44h9.57V602.31H765Z" transform="translate(-67.33 -253.27)"/><path class="cls-1" d="M772.91,648.93h-6.69V605h6.69Zm-4.26-2.44h1.82v-39h-1.82Z" transform="translate(-67.33 -253.27)"/><path class="cls-1" d="M766,593.29h-21V576.21h21Zm-18.59-2.43h16.15V578.64H747.38Z" transform="translate(-67.33 -253.27)"/><path class="cls-1" d="M777.51,593H764V575.9h13.5Zm-11.07-2.44h8.64V578.34h-8.64Z" transform="translate(-67.33 -253.27)"/><path class="cls-1" d="M745.81,627.26c-39-21.46-76.71-.23-77.09,0l-1.22-2.11c.39-.22,39.31-22.13,79.48,0Z" transform="translate(-67.33 -253.27)"/><path class="cls-1" d="M746.21,633.35c-39-21.45-76.71-.23-77.08,0l-1.22-2.1c.39-.23,39.3-22.14,79.48,0Z" transform="translate(-67.33 -253.27)"/><path class="cls-1" d="M651.05,561.26a9,9,0,1,1,9-9A9,9,0,0,1,651.05,561.26Zm0-15.57a6.57,6.57,0,1,0,6.57,6.57A6.57,6.57,0,0,0,651.05,545.69Z" transform="translate(-67.33 -253.27)"/><path class="cls-1" d="M660.4,555.57H641.7a2.74,2.74,0,0,1-2.74-2.74v-1.14A2.74,2.74,0,0,1,641.7,549h18.7a2.74,2.74,0,0,1,2.74,2.74v1.14A2.74,2.74,0,0,1,660.4,555.57Zm-18.7-4.19a.31.31,0,0,0-.31.31v1.14a.3.3,0,0,0,.31.3h18.7a.3.3,0,0,0,.31-.3v-1.14a.31.31,0,0,0-.31-.31Z" transform="translate(-67.33 -253.27)"/><path class="cls-1" d="M654.05,567.13h-6v-8.3h6Zm-3.56-2.44h1.12v-3.43h-1.12Z" transform="translate(-67.33 -253.27)"/><path class="cls-1" d="M660.06,573.45h-2.44a6.57,6.57,0,1,0-13.14,0H642a9,9,0,0,1,18,0Z" transform="translate(-67.33 -253.27)"/><path class="cls-1" d="M651.05,543.17a4.31,4.31,0,1,1,4.31-4.31A4.31,4.31,0,0,1,651.05,543.17Zm0-6.19a1.88,1.88,0,1,0,1.88,1.88A1.88,1.88,0,0,0,651.05,537Z" transform="translate(-67.33 -253.27)"/><path class="cls-1" d="M768.27,561.22a9,9,0,1,1,9-9A9,9,0,0,1,768.27,561.22Zm0-15.58a6.57,6.57,0,1,0,6.58,6.57A6.58,6.58,0,0,0,768.27,545.64Z" transform="translate(-67.33 -253.27)"/><path class="cls-1" d="M777.63,555.52H758.92a2.74,2.74,0,0,1-2.74-2.74v-1.14a2.74,2.74,0,0,1,2.74-2.74h18.71a2.74,2.74,0,0,1,2.74,2.74v1.14A2.74,2.74,0,0,1,777.63,555.52Zm-18.71-4.18a.3.3,0,0,0-.3.3v1.14a.31.31,0,0,0,.3.31h18.71a.31.31,0,0,0,.3-.31v-1.14a.3.3,0,0,0-.3-.3Z" transform="translate(-67.33 -253.27)"/><path class="cls-1" d="M771.27,567.08h-6v-8.3h6Zm-3.56-2.44h1.13v-3.42h-1.13Z" transform="translate(-67.33 -253.27)"/><path class="cls-1" d="M777.28,573.4h-2.43a6.58,6.58,0,0,0-13.15,0h-2.43a9,9,0,1,1,18,0Z" transform="translate(-67.33 -253.27)"/><path class="cls-1" d="M768.27,543.13a4.32,4.32,0,1,1,4.32-4.31A4.32,4.32,0,0,1,768.27,543.13Zm0-6.19a1.88,1.88,0,1,0,1.88,1.88A1.88,1.88,0,0,0,768.27,536.94Z" transform="translate(-67.33 -253.27)"/><rect class="cls-1" x="310.06" y="346.4" width="260.07" height="2.43"/><rect class="cls-1" x="710.4" y="346.4" width="260.07" height="2.43"/><path class="cls-1" d="M660.08,578.93" transform="translate(-67.33 -253.27)"/><rect class="cls-1" x="591.54" y="262.1" width="2.43" height="57.45"/><path class="cls-1" d="M714,504.53h-2.44v-4.92a25.13,25.13,0,0,0-50.26,0v4.83h-2.43v-4.83a27.57,27.57,0,0,1,55.13,0Z" transform="translate(-67.33 -253.27)"/><rect class="cls-1" x="644.23" y="262.09" width="2.43" height="57.86"/><path class="cls-1" d="M712.78,578.93" transform="translate(-67.33 -253.27)"/><path class="cls-1" d="M667.81,504.55h-2.44v-4.11a21.06,21.06,0,0,1,42.12,0v4h-2.44v-4a18.62,18.62,0,0,0-37.24,0Z" transform="translate(-67.33 -253.27)"/><rect class="cls-1" x="637.72" y="262.09" width="2.43" height="57.79"/><path class="cls-1" d="M706.27,578.49" transform="translate(-67.33 -253.27)"/><path class="cls-1" d="M666.59,578.49" transform="translate(-67.33 -253.27)"/><rect class="cls-1" x="598.04" y="262.1" width="2.43" height="57.56"/><path class="cls-1" d="M663.25,517.44a7.53,7.53,0,1,1,7.53-7.53A7.54,7.54,0,0,1,663.25,517.44Zm0-12.63a5.1,5.1,0,1,0,5.1,5.1A5.11,5.11,0,0,0,663.25,504.81Z" transform="translate(-67.33 -253.27)"/><path class="cls-1" d="M709.46,517.44a7.53,7.53,0,1,1,7.54-7.53A7.54,7.54,0,0,1,709.46,517.44Zm0-12.63a5.1,5.1,0,1,0,5.1,5.1A5.1,5.1,0,0,0,709.46,504.81Z" transform="translate(-67.33 -253.27)"/><rect class="cls-1" x="617.99" y="228.04" width="2.43" height="91.26"/><rect class="cls-1" x="601.97" y="255.02" width="34.27" height="2.43"/><rect class="cls-1" x="600.14" y="278.54" width="37.92" height="2.43"/><rect class="cls-1" x="600.45" y="302.57" width="37.92" height="2.43"/><path class="cls-1" d="M437.4,576" transform="translate(-67.33 -253.27)"/><rect class="cls-1" x="368.85" y="259.21" width="2.43" height="57.45"/><path class="cls-1" d="M491.31,501.64h-2.43v-4.92a25.14,25.14,0,0,0-50.27,0v4.83h-2.43v-4.83a27.57,27.57,0,0,1,55.13,0Z" transform="translate(-67.33 -253.27)"/><rect class="cls-1" x="421.55" y="259.19" width="2.43" height="57.87"/><path class="cls-1" d="M490.09,576" transform="translate(-67.33 -253.27)"/><path class="cls-1" d="M445.12,501.66h-2.43v-4.11a21.06,21.06,0,1,1,42.11,0v4h-2.43v-4a18.63,18.63,0,1,0-37.25,0Z" transform="translate(-67.33 -253.27)"/><rect class="cls-1" x="415.04" y="259.19" width="2.43" height="57.79"/><path class="cls-1" d="M483.59,575.6" transform="translate(-67.33 -253.27)"/><path class="cls-1" d="M443.91,575.6" transform="translate(-67.33 -253.27)"/><rect class="cls-1" x="375.36" y="259.21" width="2.43" height="57.56"/><path class="cls-1" d="M481.68,595h-36V579.79h36Zm-33.58-2.44h31.15V582.22H448.1Z" transform="translate(-67.33 -253.27)"/><path class="cls-1" d="M496.76,601.56H479.25V574.18h17.51Zm-15.08-2.44h12.65V576.61H481.68Z" transform="translate(-67.33 -253.27)"/><path class="cls-1" d="M477.86,592.06H449.57v-9.84h28.29ZM452,589.62h23.43v-5H452Z" transform="translate(-67.33 -253.27)"/><path class="cls-1" d="M440.56,514.55A7.54,7.54,0,1,1,448.1,507,7.54,7.54,0,0,1,440.56,514.55Zm0-12.63a5.1,5.1,0,1,0,5.1,5.09A5.1,5.1,0,0,0,440.56,501.92Z" transform="translate(-67.33 -253.27)"/><path class="cls-1" d="M486.78,514.55a7.54,7.54,0,1,1,7.53-7.54A7.54,7.54,0,0,1,486.78,514.55Zm0-12.63a5.1,5.1,0,1,0,5.1,5.09A5.1,5.1,0,0,0,486.78,501.92Z" transform="translate(-67.33 -253.27)"/><path class="cls-1" d="M448.1,575.4h-2.44a5.1,5.1,0,1,0-10.2,0H433a7.54,7.54,0,1,1,15.07,0Z" transform="translate(-67.33 -253.27)"/><path class="cls-1" d="M494.31,575.7h-2.43a5.1,5.1,0,1,0-10.2,0h-2.43a7.53,7.53,0,1,1,15.06,0Z" transform="translate(-67.33 -253.27)"/><path class="cls-1" d="M448.1,601.56H430.58V574.18H448.1ZM433,599.12h12.64V576.61H433Z" transform="translate(-67.33 -253.27)"/><path class="cls-1" d="M481.76,601.56h-36V576.25h36Zm-33.58-2.44h31.15V578.68H448.18Z" transform="translate(-67.33 -253.27)"/><rect class="cls-1" x="395.31" y="225.15" width="2.43" height="98.56"/><rect class="cls-1" x="379.28" y="252.12" width="34.27" height="2.43"/><rect class="cls-1" x="377.46" y="275.65" width="37.93" height="2.43"/><rect class="cls-1" x="377.76" y="299.68" width="37.93" height="2.43"/><path class="cls-1" d="M538.4,576" transform="translate(-67.33 -253.27)"/><rect class="cls-1" x="469.85" y="259.21" width="2.43" height="57.45"/><path class="cls-1" d="M592.31,501.64h-2.43v-4.92a25.14,25.14,0,0,0-50.27,0v4.83h-2.43v-4.83a27.57,27.57,0,0,1,55.13,0Z" transform="translate(-67.33 -253.27)"/><rect class="cls-1" x="522.54" y="259.19" width="2.43" height="57.87"/><path class="cls-1" d="M591.09,576" transform="translate(-67.33 -253.27)"/><path class="cls-1" d="M546.12,501.66h-2.43v-4.11a21.06,21.06,0,1,1,42.11,0v4h-2.43v-4a18.63,18.63,0,1,0-37.25,0Z" transform="translate(-67.33 -253.27)"/><rect class="cls-1" x="516.04" y="259.19" width="2.43" height="57.79"/><path class="cls-1" d="M584.58,575.6" transform="translate(-67.33 -253.27)"/><path class="cls-1" d="M544.9,575.6" transform="translate(-67.33 -253.27)"/><rect class="cls-1" x="476.36" y="259.21" width="2.43" height="57.56"/><path class="cls-1" d="M582.68,595h-36V579.79h36Zm-33.59-2.44h31.15V582.22H549.09Z" transform="translate(-67.33 -253.27)"/><path class="cls-1" d="M597.76,601.56H580.24V574.18h17.52Zm-15.08-2.44h12.64V576.61H582.68Z" transform="translate(-67.33 -253.27)"/><path class="cls-1" d="M578.86,592.06H550.57v-9.84h28.29ZM553,589.62h23.43v-5H553Z" transform="translate(-67.33 -253.27)"/><path class="cls-1" d="M541.56,514.55a7.54,7.54,0,1,1,7.53-7.54A7.54,7.54,0,0,1,541.56,514.55Zm0-12.63a5.1,5.1,0,1,0,5.1,5.09A5.1,5.1,0,0,0,541.56,501.92Z" transform="translate(-67.33 -253.27)"/><path class="cls-1" d="M587.78,514.55a7.54,7.54,0,1,1,7.53-7.54A7.55,7.55,0,0,1,587.78,514.55Zm0-12.63a5.1,5.1,0,1,0,5.1,5.09A5.1,5.1,0,0,0,587.78,501.92Z" transform="translate(-67.33 -253.27)"/><path class="cls-1" d="M549.09,575.4h-2.43a5.1,5.1,0,0,0-10.2,0H534a7.53,7.53,0,1,1,15.06,0Z" transform="translate(-67.33 -253.27)"/><path class="cls-1" d="M595.31,575.7h-2.43a5.1,5.1,0,0,0-10.2,0h-2.44a7.54,7.54,0,0,1,15.07,0Z" transform="translate(-67.33 -253.27)"/><path class="cls-1" d="M549.09,601.56H531.58V574.18h17.51ZM534,599.12h12.65V576.61H534Z" transform="translate(-67.33 -253.27)"/><path class="cls-1" d="M582.76,601.56h-36V576.25h36Zm-33.58-2.44h31.15V578.68H549.18Z" transform="translate(-67.33 -253.27)"/><rect class="cls-1" x="496.3" y="225.15" width="2.43" height="98.56"/><rect class="cls-1" x="480.28" y="252.12" width="34.27" height="2.43"/><rect class="cls-1" x="478.46" y="275.65" width="37.93" height="2.43"/><rect class="cls-1" x="478.76" y="299.68" width="37.93" height="2.43"/><path class="cls-1" d="M821.66,575.8" transform="translate(-67.33 -253.27)"/><rect class="cls-1" x="753.12" y="258.98" width="2.43" height="57.45"/><path class="cls-1" d="M875.58,501.41h-2.44v-4.92a25.13,25.13,0,0,0-50.26,0v4.83h-2.43v-4.83a27.57,27.57,0,1,1,55.13,0Z" transform="translate(-67.33 -253.27)"/><rect class="cls-1" x="805.81" y="258.96" width="2.43" height="57.87"/><path class="cls-1" d="M874.36,575.8" transform="translate(-67.33 -253.27)"/><path class="cls-1" d="M829.39,501.43H827v-4.11a21.06,21.06,0,1,1,42.11,0v4h-2.43v-4a18.63,18.63,0,1,0-37.25,0Z" transform="translate(-67.33 -253.27)"/><rect class="cls-1" x="799.31" y="258.96" width="2.43" height="57.79"/><path class="cls-1" d="M867.85,575.37" transform="translate(-67.33 -253.27)"/><path class="cls-1" d="M828.17,575.37" transform="translate(-67.33 -253.27)"/><rect class="cls-1" x="759.63" y="258.98" width="2.43" height="57.56"/><path class="cls-1" d="M866,594.77h-36V579.56h36Zm-33.59-2.44h31.15V582H832.36Z" transform="translate(-67.33 -253.27)"/><path class="cls-1" d="M881,601.33H863.51V574H881ZM866,598.89h12.64V576.38H866Z" transform="translate(-67.33 -253.27)"/><path class="cls-1" d="M862.13,591.82h-28.3V582h28.3Zm-25.86-2.43h23.42v-5H836.27Z" transform="translate(-67.33 -253.27)"/><path class="cls-1" d="M824.83,514.32a7.54,7.54,0,1,1,7.53-7.54A7.54,7.54,0,0,1,824.83,514.32Zm0-12.64a5.1,5.1,0,1,0,5.1,5.1A5.11,5.11,0,0,0,824.83,501.68Z" transform="translate(-67.33 -253.27)"/><path class="cls-1" d="M871.05,514.32a7.54,7.54,0,1,1,7.53-7.54A7.55,7.55,0,0,1,871.05,514.32Zm0-12.64a5.1,5.1,0,1,0,5.09,5.1A5.1,5.1,0,0,0,871.05,501.68Z" transform="translate(-67.33 -253.27)"/><path class="cls-1" d="M832.36,575.16h-2.43a5.1,5.1,0,1,0-10.2,0H817.3a7.53,7.53,0,0,1,15.06,0Z" transform="translate(-67.33 -253.27)"/><path class="cls-1" d="M878.58,575.47h-2.44a5.1,5.1,0,1,0-10.19,0h-2.44a7.54,7.54,0,1,1,15.07,0Z" transform="translate(-67.33 -253.27)"/><path class="cls-1" d="M832.36,601.33H814.85V574h17.51Zm-15.08-2.44h12.65V576.38H817.28Z" transform="translate(-67.33 -253.27)"/><path class="cls-1" d="M866,601.33H830V576h36Zm-33.58-2.44H863.6V578.45H832.45Z" transform="translate(-67.33 -253.27)"/><rect class="cls-1" x="779.57" y="224.92" width="2.43" height="98.56"/><rect class="cls-1" x="763.55" y="251.89" width="34.27" height="2.43"/><rect class="cls-1" x="761.73" y="275.42" width="37.92" height="2.43"/><rect class="cls-1" x="762.03" y="299.45" width="37.92" height="2.43"/><path class="cls-1" d="M925.35,577.25" transform="translate(-67.33 -253.27)"/><rect class="cls-1" x="856.8" y="260.43" width="2.43" height="57.45"/><path class="cls-1" d="M979.26,502.86h-2.43v-4.92a25.13,25.13,0,0,0-50.26,0v4.83h-2.44v-4.83a27.57,27.57,0,1,1,55.13,0Z" transform="translate(-67.33 -253.27)"/><rect class="cls-1" x="909.5" y="260.41" width="2.43" height="57.87"/><path class="cls-1" d="M978.05,577.25" transform="translate(-67.33 -253.27)"/><path class="cls-1" d="M933.08,502.87h-2.44v-4.1a21.06,21.06,0,1,1,42.12,0v4h-2.44v-4a18.62,18.62,0,1,0-37.24,0Z" transform="translate(-67.33 -253.27)"/><rect class="cls-1" x="902.99" y="260.41" width="2.43" height="57.79"/><path class="cls-1" d="M971.54,576.81" transform="translate(-67.33 -253.27)"/><path class="cls-1" d="M931.86,576.81" transform="translate(-67.33 -253.27)"/><rect class="cls-1" x="863.31" y="260.43" width="2.43" height="57.56"/><path class="cls-1" d="M969.63,596.21h-36V581h36Zm-33.58-2.43H967.2V583.44H936.05Z" transform="translate(-67.33 -253.27)"/><path class="cls-1" d="M984.71,602.78H967.2V575.4h17.51Zm-15.08-2.44h12.65V577.83H969.63Z" transform="translate(-67.33 -253.27)"/><path class="cls-1" d="M965.81,593.27H937.52v-9.83h28.29ZM940,590.84h23.43v-5H940Z" transform="translate(-67.33 -253.27)"/><path class="cls-1" d="M928.52,515.76a7.53,7.53,0,1,1,7.53-7.53A7.54,7.54,0,0,1,928.52,515.76Zm0-12.63a5.1,5.1,0,1,0,5.09,5.1A5.1,5.1,0,0,0,928.52,503.13Z" transform="translate(-67.33 -253.27)"/><path class="cls-1" d="M974.73,515.76a7.53,7.53,0,1,1,7.53-7.53A7.54,7.54,0,0,1,974.73,515.76Zm0-12.63a5.1,5.1,0,1,0,5.1,5.1A5.11,5.11,0,0,0,974.73,503.13Z" transform="translate(-67.33 -253.27)"/><path class="cls-1" d="M936.05,576.61h-2.44a5.1,5.1,0,1,0-10.19,0H921a7.54,7.54,0,0,1,15.07,0Z" transform="translate(-67.33 -253.27)"/><path class="cls-1" d="M982.26,576.92h-2.43a5.1,5.1,0,0,0-10.2,0H967.2a7.53,7.53,0,1,1,15.06,0Z" transform="translate(-67.33 -253.27)"/><path class="cls-1" d="M936.05,602.78H918.54V575.4h17.51ZM921,600.34h12.64V577.83H921Z" transform="translate(-67.33 -253.27)"/><path class="cls-1" d="M969.72,602.78h-36V577.46h36Zm-33.59-2.44h31.15V579.9H936.13Z" transform="translate(-67.33 -253.27)"/><rect class="cls-1" x="883.26" y="226.37" width="2.43" height="98.56"/><rect class="cls-1" x="867.24" y="253.34" width="34.27" height="2.43"/><rect class="cls-1" x="865.41" y="276.87" width="37.92" height="2.43"/><rect class="cls-1" x="865.72" y="300.9" width="37.92" height="2.43"/><path class="cls-1" d="M435,731.79" transform="translate(-67.33 -253.27)"/><rect class="cls-1" x="366.42" y="414.97" width="2.43" height="57.45"/><path class="cls-1" d="M488.88,657.4h-2.44v-4.92a25.13,25.13,0,1,0-50.26,0v4.83h-2.43v-4.83a27.57,27.57,0,1,1,55.13,0Z" transform="translate(-67.33 -253.27)"/><rect class="cls-1" x="419.11" y="414.95" width="2.43" height="57.87"/><path class="cls-1" d="M487.66,731.79" transform="translate(-67.33 -253.27)"/><path class="cls-1" d="M442.69,657.41h-2.43V653.3a21.06,21.06,0,0,1,42.11,0v4h-2.43v-4a18.63,18.63,0,0,0-37.25,0Z" transform="translate(-67.33 -253.27)"/><rect class="cls-1" x="412.61" y="414.95" width="2.43" height="57.79"/><path class="cls-1" d="M481.15,731.35" transform="translate(-67.33 -253.27)"/><path class="cls-1" d="M441.47,731.35" transform="translate(-67.33 -253.27)"/><rect class="cls-1" x="372.93" y="414.97" width="2.43" height="57.56"/><path class="cls-1" d="M479.25,750.75h-36V735.54h36Zm-33.59-2.43h31.15V738H445.66Z" transform="translate(-67.33 -253.27)"/><path class="cls-1" d="M494.33,757.31H476.81V729.93h17.52Zm-15.08-2.43h12.64V732.37H479.25Z" transform="translate(-67.33 -253.27)"/><path class="cls-1" d="M475.43,747.81h-28.3V738h28.3Zm-25.86-2.43H473v-5H449.57Z" transform="translate(-67.33 -253.27)"/><path class="cls-1" d="M438.13,670.3a7.53,7.53,0,1,1,7.53-7.53A7.54,7.54,0,0,1,438.13,670.3Zm0-12.63a5.1,5.1,0,1,0,5.1,5.1A5.11,5.11,0,0,0,438.13,657.67Z" transform="translate(-67.33 -253.27)"/><path class="cls-1" d="M484.35,670.3a7.53,7.53,0,1,1,7.53-7.53A7.54,7.54,0,0,1,484.35,670.3Zm0-12.63a5.1,5.1,0,1,0,5.09,5.1A5.1,5.1,0,0,0,484.35,657.67Z" transform="translate(-67.33 -253.27)"/><path class="cls-1" d="M445.66,731.15h-2.43a5.1,5.1,0,0,0-10.2,0H430.6a7.53,7.53,0,0,1,15.06,0Z" transform="translate(-67.33 -253.27)"/><path class="cls-1" d="M491.88,731.45h-2.44a5.1,5.1,0,1,0-10.19,0h-2.44a7.54,7.54,0,0,1,15.07,0Z" transform="translate(-67.33 -253.27)"/><path class="cls-1" d="M445.66,757.31H428.15V729.93h17.51Zm-15.08-2.43h12.65V732.37H430.58Z" transform="translate(-67.33 -253.27)"/><path class="cls-1" d="M479.33,757.31h-36V732h36Zm-33.59-2.43H476.9V734.44H445.74Z" transform="translate(-67.33 -253.27)"/><rect class="cls-1" x="392.87" y="380.91" width="2.43" height="98.56"/><rect class="cls-1" x="376.85" y="407.88" width="34.27" height="2.43"/><rect class="cls-1" x="375.03" y="431.4" width="37.93" height="2.43"/><rect class="cls-1" x="375.33" y="455.44" width="37.93" height="2.43"/><path class="cls-1" d="M377,809.65H83.15V405.56H377ZM88,804.78H372.13V410.43H88Z" transform="translate(-67.33 -253.27)"/><path class="cls-1" d="M284.79,810.47H180.32V406.38H284.79Zm-99.61-4.86h94.74V411.25H185.18Z" transform="translate(-67.33 -253.27)"/><path class="cls-1" d="M378.22,410.25H69.76A2.43,2.43,0,0,1,67.65,409a2.46,2.46,0,0,1,0-2.45l32.86-55.17a2.43,2.43,0,0,1,2.09-1.19h87.43a2.43,2.43,0,1,1,0,4.86H104L74.05,405.39H376.31l12.2-50.32H280a2.43,2.43,0,1,1,0-4.86H391.6a2.43,2.43,0,0,1,1.92.93,2.41,2.41,0,0,1,.45,2.07l-13.39,55.18A2.43,2.43,0,0,1,378.22,410.25Z" transform="translate(-67.33 -253.27)"/><path class="cls-1" d="M282.44,411.47H187.62V341h94.82Zm-89.95-4.87h85.08V345.85H192.49Z" transform="translate(-67.33 -253.27)"/><path class="cls-1" d="M281.3,345.33H188.89L177.67,331.4h113Zm-90.08-4.86h87.49l2.82-4.2h-93.7Z" transform="translate(-67.33 -253.27)"/><polygon class="cls-1" points="219.26 80.51 211.93 43.01 121.03 43.01 114.94 80.44 110.13 79.65 116.89 38.14 215.94 38.14 224.03 79.58 219.26 80.51"/><rect class="cls-1" x="18.25" y="477.89" width="97.17" height="2.43"/><rect class="cls-1" x="212.87" y="477.89" width="97.17" height="2.43"/><rect class="cls-1" x="116.68" y="473.89" width="97.17" height="2.43"/><path class="cls-1" d="M332,401.83a12,12,0,1,1,12-12A12,12,0,0,1,332,401.83Zm0-21.54a9.56,9.56,0,1,0,9.55,9.55A9.56,9.56,0,0,0,332,380.29Z" transform="translate(-67.33 -253.27)"/><path class="cls-1" d="M350,407.89H313.9V387.68H314a18,18,0,0,1,35.81,0H350Zm-33.67-2.43h31.23l0-16.49a15.6,15.6,0,0,0-31.15,0l0,.82Z" transform="translate(-67.33 -253.27)"/><path class="cls-1" d="M355.12,396.57H341.19v-2.43h11.5v-3.91h-4.85l0-1.18a15.68,15.68,0,0,0-9.3-13.76L333.21,373h3.21l-4.21-4.38L328,373h3.21l-5.28,2.33a15.68,15.68,0,0,0-9.3,13.76l0,1.18H311.2v3.91h11.5v2.43H308.77v-8.78h5.49a18.17,18.17,0,0,1,9.9-14.36l8-8.36,8,8.36a18.14,18.14,0,0,1,9.9,14.36h5Z" transform="translate(-67.33 -253.27)"/><path class="cls-1" d="M135.51,401a12,12,0,1,1,12-12A12,12,0,0,1,135.51,401Zm0-21.54a9.56,9.56,0,1,0,9.56,9.55A9.56,9.56,0,0,0,135.51,379.5Z" transform="translate(-67.33 -253.27)"/><path class="cls-1" d="M153.56,407.1h-36.1V386.89h.15a18,18,0,0,1,35.8,0h.15Zm-33.66-2.43h31.23l0-16.49a15.59,15.59,0,0,0-31.14,0l0,.82Z" transform="translate(-67.33 -253.27)"/><path class="cls-1" d="M158.69,395.78H144.76v-2.43h11.49v-3.92H151.4l0-1.17a15.68,15.68,0,0,0-9.3-13.76l-5.28-2.33H140l-4.21-4.38-4.22,4.38h3.21l-5.28,2.33a15.68,15.68,0,0,0-9.3,13.76l0,1.17h-5.38v3.92h11.5v2.43H112.34V387h5.49a18.18,18.18,0,0,1,9.9-14.37l8-8.35,8,8.35a18.18,18.18,0,0,1,9.9,14.37h5Z" transform="translate(-67.33 -253.27)"/><path class="cls-1" d="M221.25,334.28l-4.15-2.54a21.29,21.29,0,0,1,35.8-.81l-4,2.73a16.41,16.41,0,0,0-27.61.62Z" transform="translate(-67.33 -253.27)"/><rect class="cls-1" x="17.04" y="502.19" width="97.17" height="2.43"/><rect class="cls-1" x="212.71" y="502.21" width="252.89" height="2.43"/><rect class="cls-1" x="116.64" y="496.85" width="97.17" height="2.43"/><rect class="cls-1" x="18.99" y="312.94" width="97.17" height="2.43"/><rect class="cls-1" x="17.77" y="337.24" width="97.17" height="2.43"/><rect class="cls-1" x="214.82" y="312.1" width="95.06" height="2.43"/><rect class="cls-1" x="213.63" y="336.4" width="95.06" height="2.43"/><rect class="cls-1" x="116.7" y="309.6" width="97.17" height="2.43"/><rect class="cls-1" x="116.66" y="332.56" width="97.17" height="2.43"/><path class="cls-1" d="M276.22,582.21H189.44a1.22,1.22,0,0,1-1.21-1.22V569.48a1.22,1.22,0,0,1,1.21-1.22h86.78a1.22,1.22,0,0,1,1.22,1.22V581A1.22,1.22,0,0,1,276.22,582.21Zm-85.56-2.44H275V570.7H190.66Z" transform="translate(-67.33 -253.27)"/><path class="cls-1" d="M275.94,746.83H189.16a1.22,1.22,0,0,1-1.22-1.22V734.1a1.22,1.22,0,0,1,1.22-1.21h86.78a1.22,1.22,0,0,1,1.22,1.21v11.51A1.22,1.22,0,0,1,275.94,746.83Zm-85.56-2.44h84.35v-9.07H190.38Z" transform="translate(-67.33 -253.27)"/><path class="cls-1" d="M302.33,566.3" transform="translate(-67.33 -253.27)"/><rect class="cls-1" x="233.78" y="249.47" width="2.43" height="57.45"/><path class="cls-1" d="M356.24,491.9h-2.43V487a25.13,25.13,0,1,0-50.26,0v4.83h-2.44V487a27.57,27.57,0,1,1,55.13,0Z" transform="translate(-67.33 -253.27)"/><rect class="cls-1" x="286.48" y="249.46" width="2.43" height="57.87"/><path class="cls-1" d="M355,566.3" transform="translate(-67.33 -253.27)"/><path class="cls-1" d="M310.05,491.92h-2.43v-4.11a21.06,21.06,0,0,1,42.11,0v4H347.3v-4a18.63,18.63,0,0,0-37.25,0Z" transform="translate(-67.33 -253.27)"/><rect class="cls-1" x="279.97" y="249.46" width="2.43" height="57.79"/><path class="cls-1" d="M348.52,565.86" transform="translate(-67.33 -253.27)"/><path class="cls-1" d="M308.84,565.86" transform="translate(-67.33 -253.27)"/><rect class="cls-1" x="240.29" y="249.47" width="2.43" height="57.56"/><path class="cls-1" d="M346.61,585.26h-36V570.05h36ZM313,582.83h31.15V572.48H313Z" transform="translate(-67.33 -253.27)"/><path class="cls-1" d="M361.69,591.82H344.18V564.44h17.51Zm-15.08-2.43h12.65V566.88H346.61Z" transform="translate(-67.33 -253.27)"/><path class="cls-1" d="M342.79,582.32H314.5v-9.84h28.29Zm-25.86-2.43h23.43v-5H316.93Z" transform="translate(-67.33 -253.27)"/><path class="cls-1" d="M305.49,504.81a7.53,7.53,0,1,1,7.54-7.53A7.54,7.54,0,0,1,305.49,504.81Zm0-12.63a5.1,5.1,0,1,0,5.1,5.1A5.11,5.11,0,0,0,305.49,492.18Z" transform="translate(-67.33 -253.27)"/><path class="cls-1" d="M351.71,504.81a7.53,7.53,0,1,1,7.53-7.53A7.54,7.54,0,0,1,351.71,504.81Zm0-12.63a5.1,5.1,0,1,0,5.1,5.1A5.11,5.11,0,0,0,351.71,492.18Z" transform="translate(-67.33 -253.27)"/><path class="cls-1" d="M313,565.66h-2.44a5.1,5.1,0,1,0-10.2,0H298a7.54,7.54,0,0,1,15.07,0Z" transform="translate(-67.33 -253.27)"/><path class="cls-1" d="M359.24,566h-2.43a5.1,5.1,0,0,0-10.2,0h-2.43a7.53,7.53,0,1,1,15.06,0Z" transform="translate(-67.33 -253.27)"/><path class="cls-1" d="M313,591.82H295.51V564.44H313ZM298,589.39h12.64V566.88H298Z" transform="translate(-67.33 -253.27)"/><path class="cls-1" d="M346.7,591.82h-36V566.51h36Zm-33.59-2.43h31.15V569H313.11Z" transform="translate(-67.33 -253.27)"/><rect class="cls-1" x="260.24" y="215.42" width="2.43" height="98.56"/><rect class="cls-1" x="244.22" y="242.39" width="34.27" height="2.43"/><rect class="cls-1" x="242.39" y="265.91" width="37.93" height="2.43"/><rect class="cls-1" x="242.69" y="289.95" width="37.93" height="2.43"/><path class="cls-1" d="M302.33,733" transform="translate(-67.33 -253.27)"/><rect class="cls-1" x="233.78" y="416.18" width="2.43" height="57.45"/><path class="cls-1" d="M356.24,658.61h-2.43v-4.92a25.13,25.13,0,1,0-50.26,0v4.83h-2.44v-4.83a27.57,27.57,0,0,1,55.13,0Z" transform="translate(-67.33 -253.27)"/><rect class="cls-1" x="286.48" y="416.16" width="2.43" height="57.87"/><path class="cls-1" d="M355,733" transform="translate(-67.33 -253.27)"/><path class="cls-1" d="M310.05,658.63h-2.43v-4.11a21.06,21.06,0,1,1,42.11,0v4H347.3v-4a18.63,18.63,0,0,0-37.25,0Z" transform="translate(-67.33 -253.27)"/><rect class="cls-1" x="279.97" y="416.16" width="2.43" height="57.79"/><path class="cls-1" d="M348.52,732.57" transform="translate(-67.33 -253.27)"/><path class="cls-1" d="M308.84,732.57" transform="translate(-67.33 -253.27)"/><rect class="cls-1" x="240.29" y="416.18" width="2.43" height="57.56"/><path class="cls-1" d="M346.61,752h-36V736.76h36ZM313,749.54h31.15V739.19H313Z" transform="translate(-67.33 -253.27)"/><path class="cls-1" d="M361.69,758.53H344.18V731.15h17.51Zm-15.08-2.43h12.65V733.58H346.61Z" transform="translate(-67.33 -253.27)"/><path class="cls-1" d="M342.79,749H314.5v-9.84h28.29Zm-25.86-2.43h23.43v-5H316.93Z" transform="translate(-67.33 -253.27)"/><path class="cls-1" d="M305.49,671.52A7.54,7.54,0,1,1,313,664,7.54,7.54,0,0,1,305.49,671.52Zm0-12.63a5.1,5.1,0,1,0,5.1,5.1A5.11,5.11,0,0,0,305.49,658.89Z" transform="translate(-67.33 -253.27)"/><path class="cls-1" d="M351.71,671.52a7.54,7.54,0,1,1,7.53-7.53A7.54,7.54,0,0,1,351.71,671.52Zm0-12.63a5.1,5.1,0,1,0,5.1,5.1A5.11,5.11,0,0,0,351.71,658.89Z" transform="translate(-67.33 -253.27)"/><path class="cls-1" d="M313,732.37h-2.44a5.1,5.1,0,1,0-10.2,0H298a7.54,7.54,0,1,1,15.07,0Z" transform="translate(-67.33 -253.27)"/><path class="cls-1" d="M359.24,732.67h-2.43a5.1,5.1,0,0,0-10.2,0h-2.43a7.53,7.53,0,0,1,15.06,0Z" transform="translate(-67.33 -253.27)"/><path class="cls-1" d="M313,758.53H295.51V731.15H313ZM298,756.1h12.64V733.58H298Z" transform="translate(-67.33 -253.27)"/><path class="cls-1" d="M346.7,758.53h-36V733.22h36Zm-33.59-2.43h31.15V735.65H313.11Z" transform="translate(-67.33 -253.27)"/><rect class="cls-1" x="260.24" y="382.12" width="2.43" height="98.56"/><rect class="cls-1" x="244.22" y="409.09" width="34.27" height="2.43"/><rect class="cls-1" x="242.39" y="432.62" width="37.93" height="2.43"/><rect class="cls-1" x="242.69" y="456.65" width="37.93" height="2.43"/><path class="cls-1" d="M108.85,567.52" transform="translate(-67.33 -253.27)"/><rect class="cls-1" x="40.3" y="250.69" width="2.43" height="57.45"/><path class="cls-1" d="M162.76,493.12h-2.43V488.2a25.13,25.13,0,0,0-50.26,0V493h-2.44V488.2a27.57,27.57,0,0,1,55.13,0Z" transform="translate(-67.33 -253.27)"/><rect class="cls-1" x="93" y="250.67" width="2.43" height="57.87"/><path class="cls-1" d="M161.55,567.52" transform="translate(-67.33 -253.27)"/><path class="cls-1" d="M116.58,493.14h-2.44V489a21.06,21.06,0,0,1,42.12,0v4h-2.44v-4a18.62,18.62,0,0,0-37.24,0Z" transform="translate(-67.33 -253.27)"/><rect class="cls-1" x="86.49" y="250.67" width="2.43" height="57.79"/><path class="cls-1" d="M155,567.08" transform="translate(-67.33 -253.27)"/><path class="cls-1" d="M115.36,567.08" transform="translate(-67.33 -253.27)"/><rect class="cls-1" x="46.81" y="250.69" width="2.43" height="57.56"/><path class="cls-1" d="M153.13,586.48h-36V571.27h36ZM119.55,584H150.7V573.7H119.55Z" transform="translate(-67.33 -253.27)"/><path class="cls-1" d="M168.21,593H150.7V565.66h17.51Zm-15.08-2.43h12.65V568.09H153.13Z" transform="translate(-67.33 -253.27)"/><path class="cls-1" d="M149.32,583.54H121V573.7h28.3Zm-25.87-2.43h23.43v-5H123.45Z" transform="translate(-67.33 -253.27)"/><path class="cls-1" d="M112,506a7.54,7.54,0,1,1,7.53-7.53A7.54,7.54,0,0,1,112,506Zm0-12.63a5.1,5.1,0,1,0,5.09,5.1A5.1,5.1,0,0,0,112,493.4Z" transform="translate(-67.33 -253.27)"/><path class="cls-1" d="M158.23,506a7.54,7.54,0,1,1,7.53-7.53A7.54,7.54,0,0,1,158.23,506Zm0-12.63a5.1,5.1,0,1,0,5.1,5.1A5.11,5.11,0,0,0,158.23,493.4Z" transform="translate(-67.33 -253.27)"/><path class="cls-1" d="M119.55,566.88h-2.44a5.1,5.1,0,1,0-10.19,0h-2.44a7.54,7.54,0,1,1,15.07,0Z" transform="translate(-67.33 -253.27)"/><path class="cls-1" d="M165.76,567.18h-2.43a5.1,5.1,0,0,0-10.2,0H150.7a7.53,7.53,0,0,1,15.06,0Z" transform="translate(-67.33 -253.27)"/><path class="cls-1" d="M119.55,593H102V565.66h17.51Zm-15.08-2.43h12.64V568.09H104.47Z" transform="translate(-67.33 -253.27)"/><path class="cls-1" d="M153.22,593h-36V567.73h36Zm-33.59-2.43h31.15V570.16H119.63Z" transform="translate(-67.33 -253.27)"/><rect class="cls-1" x="66.76" y="216.63" width="2.43" height="98.56"/><rect class="cls-1" x="50.74" y="243.6" width="34.27" height="2.43"/><rect class="cls-1" x="48.91" y="267.13" width="37.93" height="2.43"/><rect class="cls-1" x="49.22" y="291.16" width="37.93" height="2.43"/><path class="cls-1" d="M108.25,731.56" transform="translate(-67.33 -253.27)"/><rect class="cls-1" x="39.7" y="414.73" width="2.43" height="57.45"/><path class="cls-1" d="M162.16,657.16h-2.43v-4.91a25.13,25.13,0,1,0-50.26,0v4.82H107v-4.82a27.57,27.57,0,1,1,55.13,0Z" transform="translate(-67.33 -253.27)"/><rect class="cls-1" x="92.4" y="414.71" width="2.43" height="57.87"/><path class="cls-1" d="M161,731.56" transform="translate(-67.33 -253.27)"/><path class="cls-1" d="M116,657.18h-2.44v-4.11a21.06,21.06,0,0,1,42.12,0v4h-2.44v-4a18.62,18.62,0,0,0-37.24,0Z" transform="translate(-67.33 -253.27)"/><rect class="cls-1" x="85.89" y="414.71" width="2.43" height="57.79"/><path class="cls-1" d="M154.44,731.12" transform="translate(-67.33 -253.27)"/><path class="cls-1" d="M114.76,731.12" transform="translate(-67.33 -253.27)"/><rect class="cls-1" x="46.21" y="414.73" width="2.43" height="57.56"/><path class="cls-1" d="M152.53,750.52h-36V735.31h36ZM119,748.09H150.1V737.74H119Z" transform="translate(-67.33 -253.27)"/><path class="cls-1" d="M167.61,757.08H150.1V729.7h17.51Zm-15.08-2.43h12.65V732.14H152.53Z" transform="translate(-67.33 -253.27)"/><path class="cls-1" d="M148.71,747.58H120.42v-9.84h28.29Zm-25.86-2.43h23.43v-5H122.85Z" transform="translate(-67.33 -253.27)"/><path class="cls-1" d="M111.42,670.07a7.53,7.53,0,1,1,7.53-7.53A7.54,7.54,0,0,1,111.42,670.07Zm0-12.63a5.1,5.1,0,1,0,5.09,5.1A5.1,5.1,0,0,0,111.42,657.44Z" transform="translate(-67.33 -253.27)"/><path class="cls-1" d="M157.63,670.07a7.53,7.53,0,1,1,7.53-7.53A7.54,7.54,0,0,1,157.63,670.07Zm0-12.63a5.1,5.1,0,1,0,5.1,5.1A5.11,5.11,0,0,0,157.63,657.44Z" transform="translate(-67.33 -253.27)"/><path class="cls-1" d="M119,730.92h-2.44a5.1,5.1,0,1,0-10.19,0h-2.44a7.54,7.54,0,0,1,15.07,0Z" transform="translate(-67.33 -253.27)"/><path class="cls-1" d="M165.16,731.22h-2.43a5.1,5.1,0,0,0-10.2,0H150.1a7.53,7.53,0,0,1,15.06,0Z" transform="translate(-67.33 -253.27)"/><path class="cls-1" d="M119,757.08H101.44V729.7H119Zm-15.08-2.43h12.64V732.14H103.87Z" transform="translate(-67.33 -253.27)"/><path class="cls-1" d="M152.62,757.08h-36V731.77h36ZM119,754.65h31.15V734.2H119Z" transform="translate(-67.33 -253.27)"/><rect class="cls-1" x="66.16" y="380.67" width="2.43" height="98.56"/><rect class="cls-1" x="50.14" y="407.65" width="34.27" height="2.43"/><rect class="cls-1" x="48.31" y="431.17" width="37.93" height="2.43"/><rect class="cls-1" x="48.62" y="455.21" width="37.93" height="2.43"/><path class="cls-1" d="M925.76,735.21" transform="translate(-67.33 -253.27)"/><rect class="cls-1" x="857.22" y="418.38" width="2.43" height="57.45"/><path class="cls-1" d="M979.68,660.81h-2.44V655.9a25.13,25.13,0,1,0-50.26,0v4.82h-2.43V655.9a27.57,27.57,0,1,1,55.13,0Z" transform="translate(-67.33 -253.27)"/><rect class="cls-1" x="909.91" y="418.36" width="2.43" height="57.87"/><path class="cls-1" d="M978.46,735.21" transform="translate(-67.33 -253.27)"/><path class="cls-1" d="M933.49,660.83h-2.43v-4.11a21.06,21.06,0,0,1,42.11,0v4h-2.43v-4a18.63,18.63,0,0,0-37.25,0Z" transform="translate(-67.33 -253.27)"/><rect class="cls-1" x="903.41" y="418.36" width="2.43" height="57.79"/><path class="cls-1" d="M972,734.77" transform="translate(-67.33 -253.27)"/><path class="cls-1" d="M932.27,734.77" transform="translate(-67.33 -253.27)"/><rect class="cls-1" x="863.73" y="418.38" width="2.43" height="57.56"/><path class="cls-1" d="M970.05,754.17H934V739h36Zm-33.59-2.43h31.15V741.4H936.46Z" transform="translate(-67.33 -253.27)"/><path class="cls-1" d="M985.13,760.73H967.61V733.35h17.52Zm-15.08-2.43h12.64V735.79H970.05Z" transform="translate(-67.33 -253.27)"/><path class="cls-1" d="M966.23,751.23h-28.3V741.4h28.3Zm-25.86-2.43H963.8v-5H940.37Z" transform="translate(-67.33 -253.27)"/><path class="cls-1" d="M928.93,673.72a7.53,7.53,0,1,1,7.53-7.53A7.54,7.54,0,0,1,928.93,673.72Zm0-12.63a5.1,5.1,0,1,0,5.1,5.1A5.11,5.11,0,0,0,928.93,661.09Z" transform="translate(-67.33 -253.27)"/><path class="cls-1" d="M975.15,673.72a7.53,7.53,0,1,1,7.53-7.53A7.54,7.54,0,0,1,975.15,673.72Zm0-12.63a5.1,5.1,0,1,0,5.1,5.1A5.1,5.1,0,0,0,975.15,661.09Z" transform="translate(-67.33 -253.27)"/><path class="cls-1" d="M936.46,734.57H934a5.1,5.1,0,1,0-10.2,0H921.4a7.53,7.53,0,1,1,15.06,0Z" transform="translate(-67.33 -253.27)"/><path class="cls-1" d="M982.68,734.87h-2.43a5.1,5.1,0,0,0-10.2,0h-2.44a7.54,7.54,0,0,1,15.07,0Z" transform="translate(-67.33 -253.27)"/><path class="cls-1" d="M936.46,760.73H919V733.35h17.51Zm-15.08-2.43H934V735.79H921.38Z" transform="translate(-67.33 -253.27)"/><path class="cls-1" d="M970.13,760.73h-36V735.42h36Zm-33.58-2.43H967.7V737.86H936.55Z" transform="translate(-67.33 -253.27)"/><rect class="cls-1" x="883.67" y="384.32" width="2.43" height="98.56"/><rect class="cls-1" x="867.65" y="411.3" width="34.27" height="2.43"/><rect class="cls-1" x="865.83" y="434.82" width="37.93" height="2.43"/><rect class="cls-1" x="866.13" y="458.86" width="37.93" height="2.43"/><path class="cls-1" d="M538,732" transform="translate(-67.33 -253.27)"/><rect class="cls-1" x="469.42" y="415.14" width="2.43" height="57.45"/><path class="cls-1" d="M591.88,657.57h-2.43v-4.92a25.14,25.14,0,0,0-50.27,0v4.83h-2.43v-4.83a27.57,27.57,0,1,1,55.13,0Z" transform="translate(-67.33 -253.27)"/><rect class="cls-1" x="522.12" y="415.12" width="2.43" height="57.86"/><path class="cls-1" d="M590.66,732" transform="translate(-67.33 -253.27)"/><path class="cls-1" d="M545.69,657.59h-2.43v-4.11a21.06,21.06,0,1,1,42.11,0v4h-2.43v-4a18.63,18.63,0,0,0-37.25,0Z" transform="translate(-67.33 -253.27)"/><rect class="cls-1" x="515.61" y="415.12" width="2.43" height="57.79"/><path class="cls-1" d="M584.16,731.53" transform="translate(-67.33 -253.27)"/><path class="cls-1" d="M544.47,731.53" transform="translate(-67.33 -253.27)"/><rect class="cls-1" x="475.93" y="415.14" width="2.43" height="57.56"/><path class="cls-1" d="M582.25,750.93h-36V735.72h36Zm-33.59-2.44h31.16V738.15H548.66Z" transform="translate(-67.33 -253.27)"/><path class="cls-1" d="M597.33,757.49H579.82V730.11h17.51Zm-15.08-2.44h12.64V732.54H582.25Z" transform="translate(-67.33 -253.27)"/><path class="cls-1" d="M578.43,748H550.14v-9.84h28.29Zm-25.86-2.44H576v-5H552.57Z" transform="translate(-67.33 -253.27)"/><path class="cls-1" d="M541.13,670.48a7.54,7.54,0,1,1,7.53-7.54A7.54,7.54,0,0,1,541.13,670.48Zm0-12.64a5.1,5.1,0,1,0,5.1,5.1A5.11,5.11,0,0,0,541.13,657.84Z" transform="translate(-67.33 -253.27)"/><path class="cls-1" d="M587.35,670.48a7.54,7.54,0,1,1,7.53-7.54A7.54,7.54,0,0,1,587.35,670.48Zm0-12.64a5.1,5.1,0,1,0,5.1,5.1A5.11,5.11,0,0,0,587.35,657.84Z" transform="translate(-67.33 -253.27)"/><path class="cls-1" d="M548.66,731.32h-2.43a5.1,5.1,0,0,0-10.2,0H533.6a7.53,7.53,0,1,1,15.06,0Z" transform="translate(-67.33 -253.27)"/><path class="cls-1" d="M594.88,731.63h-2.43a5.1,5.1,0,0,0-10.2,0h-2.43a7.53,7.53,0,0,1,15.06,0Z" transform="translate(-67.33 -253.27)"/><path class="cls-1" d="M548.66,757.49H531.15V730.11h17.51Zm-15.07-2.44h12.64V732.54H533.59Z" transform="translate(-67.33 -253.27)"/><path class="cls-1" d="M582.33,757.49h-36V732.18h36Zm-33.58-2.44H579.9V734.61H548.75Z" transform="translate(-67.33 -253.27)"/><rect class="cls-1" x="495.88" y="381.08" width="2.43" height="98.56"/><rect class="cls-1" x="479.85" y="408.05" width="34.27" height="2.43"/><rect class="cls-1" x="478.03" y="431.58" width="37.92" height="2.43"/><rect class="cls-1" x="478.33" y="455.61" width="37.92" height="2.43"/><path class="cls-1" d="M823.52,735.61" transform="translate(-67.33 -253.27)"/><rect class="cls-1" x="754.97" y="418.79" width="2.43" height="57.45"/><path class="cls-1" d="M877.43,661.22H875V656.3a25.13,25.13,0,1,0-50.26,0v4.83H822.3V656.3a27.57,27.57,0,0,1,55.13,0Z" transform="translate(-67.33 -253.27)"/><rect class="cls-1" x="807.67" y="418.77" width="2.43" height="57.86"/><path class="cls-1" d="M876.22,735.61" transform="translate(-67.33 -253.27)"/><path class="cls-1" d="M831.24,661.24h-2.43v-4.11a21.06,21.06,0,1,1,42.11,0v4h-2.43v-4a18.63,18.63,0,0,0-37.25,0Z" transform="translate(-67.33 -253.27)"/><rect class="cls-1" x="801.16" y="418.77" width="2.43" height="57.79"/><path class="cls-1" d="M869.71,735.18" transform="translate(-67.33 -253.27)"/><path class="cls-1" d="M830,735.18" transform="translate(-67.33 -253.27)"/><rect class="cls-1" x="761.48" y="418.79" width="2.43" height="57.56"/><path class="cls-1" d="M867.8,754.58h-36V739.37h36Zm-33.58-2.44h31.15V741.8H834.22Z" transform="translate(-67.33 -253.27)"/><path class="cls-1" d="M882.88,761.14H865.37V733.76h17.51ZM867.8,758.7h12.65V736.19H867.8Z" transform="translate(-67.33 -253.27)"/><path class="cls-1" d="M864,751.64H835.69V741.8H864Zm-25.86-2.44h23.43v-5H838.12Z" transform="translate(-67.33 -253.27)"/><path class="cls-1" d="M826.68,674.13a7.54,7.54,0,1,1,7.54-7.54A7.54,7.54,0,0,1,826.68,674.13Zm0-12.64a5.1,5.1,0,1,0,5.1,5.1A5.11,5.11,0,0,0,826.68,661.49Z" transform="translate(-67.33 -253.27)"/><path class="cls-1" d="M872.9,674.13a7.54,7.54,0,1,1,7.53-7.54A7.54,7.54,0,0,1,872.9,674.13Zm0-12.64a5.1,5.1,0,1,0,5.1,5.1A5.11,5.11,0,0,0,872.9,661.49Z" transform="translate(-67.33 -253.27)"/><path class="cls-1" d="M834.22,735h-2.44a5.1,5.1,0,0,0-10.2,0h-2.43a7.54,7.54,0,0,1,15.07,0Z" transform="translate(-67.33 -253.27)"/><path class="cls-1" d="M880.43,735.28H878a5.1,5.1,0,0,0-10.2,0h-2.43a7.53,7.53,0,0,1,15.06,0Z" transform="translate(-67.33 -253.27)"/><path class="cls-1" d="M834.22,761.14H816.7V733.76h17.52Zm-15.08-2.44h12.64V736.19H819.14Z" transform="translate(-67.33 -253.27)"/><path class="cls-1" d="M867.88,761.14h-36V735.83h36ZM834.3,758.7h31.15V738.26H834.3Z" transform="translate(-67.33 -253.27)"/><rect class="cls-1" x="781.43" y="384.73" width="2.43" height="98.56"/><rect class="cls-1" x="765.41" y="411.7" width="34.27" height="2.43"/><rect class="cls-1" x="763.58" y="435.23" width="37.92" height="2.43"/><rect class="cls-1" x="763.89" y="459.26" width="37.92" height="2.43"/><path class="cls-1" d="M706.13,579.25" transform="translate(-67.33 -253.27)"/><rect class="cls-1" x="637.58" y="262.43" width="2.43" height="57.45"/><path class="cls-1" d="M760,504.86H757.6v-4.92a25.13,25.13,0,0,0-50.26,0v4.83h-2.43v-4.83a27.57,27.57,0,1,1,55.13,0Z" transform="translate(-67.33 -253.27)"/><rect class="cls-1" x="690.27" y="262.41" width="2.43" height="57.86"/><path class="cls-1" d="M758.82,579.25" transform="translate(-67.33 -253.27)"/><path class="cls-1" d="M713.85,504.87h-2.43v-4.1a21.06,21.06,0,1,1,42.11,0v4H751.1v-4a18.63,18.63,0,1,0-37.25,0Z" transform="translate(-67.33 -253.27)"/><rect class="cls-1" x="683.77" y="262.41" width="2.43" height="57.79"/><path class="cls-1" d="M752.31,578.81" transform="translate(-67.33 -253.27)"/><path class="cls-1" d="M712.63,578.81" transform="translate(-67.33 -253.27)"/><rect class="cls-1" x="644.09" y="262.43" width="2.43" height="57.56"/><path class="cls-1" d="M709.29,517.76a7.53,7.53,0,1,1,7.53-7.53A7.54,7.54,0,0,1,709.29,517.76Zm0-12.63a5.1,5.1,0,1,0,5.1,5.1A5.11,5.11,0,0,0,709.29,505.13Z" transform="translate(-67.33 -253.27)"/><path class="cls-1" d="M755.51,517.76a7.53,7.53,0,1,1,7.53-7.53A7.54,7.54,0,0,1,755.51,517.76Zm0-12.63a5.1,5.1,0,1,0,5.1,5.1A5.1,5.1,0,0,0,755.51,505.13Z" transform="translate(-67.33 -253.27)"/><rect class="cls-1" x="664.03" y="228.37" width="2.43" height="91.26"/><rect class="cls-1" x="648.01" y="255.34" width="34.27" height="2.43"/><rect class="cls-1" x="646.19" y="278.86" width="37.93" height="2.43"/><rect class="cls-1" x="646.49" y="302.9" width="37.93" height="2.43"/><polygon class="cls-1" points="798.84 26.6 792.41 3.55 761.99 3.55 755.56 26.6 753.22 25.95 760.14 1.12 794.25 1.12 801.18 25.95 798.84 26.6"/><path class="cls-1" d="M864.94,307.61H824.12V291.88h40.82Zm-38.39-2.44h36V294.31h-36Z" transform="translate(-67.33 -253.27)"/><path class="cls-1" d="M864.89,292.62H824.16l-4.1-13.1H869ZM826,290.19h37.16l2.57-8.24H823.37Z" transform="translate(-67.33 -253.27)"/><path class="cls-1" d="M851.36,415.63H825.47V368.28a12.95,12.95,0,1,1,25.89,0Zm-23.46-2.44h21V368.28a10.51,10.51,0,0,0-21,0Z" transform="translate(-67.33 -253.27)"/><path class="cls-1" d="M857.66,415.84H819.23V366.43a19.22,19.22,0,1,1,38.43,0Zm-36-2.43h33.57v-47a16.79,16.79,0,0,0-33.57,0Z" transform="translate(-67.33 -253.27)"/><path class="cls-1" d="M846.37,349.83h-2.44a5.49,5.49,0,0,0-11,0h-2.44a7.93,7.93,0,0,1,15.85,0Z" transform="translate(-67.33 -253.27)"/><path class="cls-1" d="M872.85,415.63H859.77V382.3h13.08Zm-10.65-2.44h8.22V384.73H862.2Z" transform="translate(-67.33 -253.27)"/><path class="cls-1" d="M907.08,416H881.19V368.7a12.95,12.95,0,1,1,25.89,0Zm-23.46-2.43h21V368.7a10.51,10.51,0,1,0-21,0Z" transform="translate(-67.33 -253.27)"/><path class="cls-1" d="M913.38,416.26H875V366.85a19.22,19.22,0,1,1,38.43,0Zm-36-2.43H911v-47a16.78,16.78,0,1,0-33.56,0Z" transform="translate(-67.33 -253.27)"/><path class="cls-1" d="M902.09,350.25h-2.43a5.49,5.49,0,0,0-11,0h-2.43a7.92,7.92,0,0,1,15.84,0Z" transform="translate(-67.33 -253.27)"/><path class="cls-1" d="M928.24,415.17H915.16V381.84h13.08Zm-10.65-2.44h8.21V384.27h-8.21Z" transform="translate(-67.33 -253.27)"/><path class="cls-1" d="M962.17,415.84H936.28V368.49a12.95,12.95,0,0,1,25.89,0Zm-23.45-2.43h21V368.49a10.51,10.51,0,0,0-21,0Z" transform="translate(-67.33 -253.27)"/><path class="cls-1" d="M968.48,416.06H930V366.64a19.22,19.22,0,0,1,38.44,0Zm-36-2.43H966v-47a16.78,16.78,0,0,0-33.56,0Z" transform="translate(-67.33 -253.27)"/><path class="cls-1" d="M957.18,350.05h-2.43a5.49,5.49,0,1,0-11,0h-2.43a7.92,7.92,0,0,1,15.84,0Z" transform="translate(-67.33 -253.27)"/><rect class="cls-1" x="789.11" y="118.81" width="19.72" height="2.43"/><rect class="cls-1" x="844.51" y="118.81" width="19.72" height="2.43"/><rect class="cls-1" x="759.49" y="118.64" width="22.82" height="2.43"/><rect class="cls-1" x="759.49" y="139.03" width="22.82" height="2.43"/><rect class="cls-1" x="769.84" y="103.74" width="2.43" height="57.5"/><rect class="cls-1" x="815.47" y="118.64" width="22.82" height="2.43"/><rect class="cls-1" x="815.47" y="139.03" width="22.82" height="2.43"/><rect class="cls-1" x="825.81" y="103.74" width="2.43" height="57.5"/><rect class="cls-1" x="870.23" y="118.64" width="22.82" height="2.43"/><rect class="cls-1" x="870.23" y="139.03" width="22.82" height="2.43"/><rect class="cls-1" x="880.57" y="103.74" width="2.43" height="57.5"/><path class="cls-1" d="M820.13,381.34h-5.47a4.87,4.87,0,1,1,0-9.73h5.47V374h-5.47a2.44,2.44,0,1,0,0,4.87h5.47Z" transform="translate(-67.33 -253.27)"/><path class="cls-1" d="M972.85,380.43h-5.48V378h5.48a2.44,2.44,0,0,0,0-4.87h-5.48V370.7h5.48a4.87,4.87,0,0,1,0,9.73Z" transform="translate(-67.33 -253.27)"/><path class="cls-1" d="M692.38,416.08H666.49V368.73a12.95,12.95,0,1,1,25.89,0Zm-23.45-2.44h21V368.73a10.51,10.51,0,1,0-21,0Z" transform="translate(-67.33 -253.27)"/><path class="cls-1" d="M698.69,416.29H660.25V366.88a19.22,19.22,0,0,1,38.44,0Zm-36-2.43h33.56v-47a16.78,16.78,0,1,0-33.56,0Z" transform="translate(-67.33 -253.27)"/><path class="cls-1" d="M687.39,350.28H685a5.49,5.49,0,0,0-11,0h-2.43a7.92,7.92,0,1,1,15.84,0Z" transform="translate(-67.33 -253.27)"/><path class="cls-1" d="M713.88,416.08H700.79V377.17h13.09Zm-10.65-2.44h8.21v-34h-8.21Z" transform="translate(-67.33 -253.27)"/><path class="cls-1" d="M748.44,415.68H722.55V368.34a12.95,12.95,0,1,1,25.89,0ZM725,413.25h21V368.34a10.51,10.51,0,1,0-21,0Z" transform="translate(-67.33 -253.27)"/><path class="cls-1" d="M754.74,415.9H716.31V366.48a19.22,19.22,0,0,1,38.43,0Zm-36-2.43h33.56v-47a16.78,16.78,0,0,0-33.56,0Z" transform="translate(-67.33 -253.27)"/><path class="cls-1" d="M743.45,349.89H741a5.49,5.49,0,0,0-11,0h-2.43a7.92,7.92,0,0,1,15.84,0Z" transform="translate(-67.33 -253.27)"/><rect class="cls-1" x="630.14" y="119.26" width="19.72" height="2.43"/><rect class="cls-1" x="600.52" y="119.09" width="22.82" height="2.43"/><rect class="cls-1" x="600.52" y="139.48" width="22.82" height="2.43"/><rect class="cls-1" x="610.86" y="104.19" width="2.43" height="57.5"/><rect class="cls-1" x="656.49" y="118.49" width="22.82" height="2.43"/><rect class="cls-1" x="656.49" y="138.87" width="22.82" height="2.43"/><rect class="cls-1" x="666.84" y="103.58" width="2.43" height="57.5"/><path class="cls-1" d="M661.16,381.79h-5.48a4.87,4.87,0,1,1,0-9.73h5.48v2.43h-5.48a2.44,2.44,0,0,0,0,4.87h5.48Z" transform="translate(-67.33 -253.27)"/><path class="cls-1" d="M759.11,380.27h-5.47v-2.43h5.47a2.44,2.44,0,1,0,0-4.87h-5.47v-2.43h5.47a4.87,4.87,0,1,1,0,9.73Z" transform="translate(-67.33 -253.27)"/><path class="cls-1" d="M1331.18,812.09H1037.33V408h293.85Zm-289-4.87h284.11V412.86H1042.2Z" transform="translate(-67.33 -253.27)"/><path class="cls-1" d="M1234,812.91H1129.54V408.82H1234Zm-99.6-4.87h94.73V413.68h-94.73Z" transform="translate(-67.33 -253.27)"/><path class="cls-1" d="M1344.57,412.69H1036.11a2.43,2.43,0,0,1-2.36-1.86l-13.39-55.18a2.46,2.46,0,0,1,.45-2.08,2.43,2.43,0,0,1,1.92-.93h111.59a2.44,2.44,0,1,1,0,4.87h-108.5L1038,407.82h302.25l-30-50.31h-86a2.44,2.44,0,1,1,0-4.87h87.43a2.43,2.43,0,0,1,2.09,1.19L1346.66,409a2.44,2.44,0,0,1-2.09,3.68Z" transform="translate(-67.33 -253.27)"/><path class="cls-1" d="M1226.71,413.9h-94.82V343.42h94.82Zm-90-4.86h85.08V348.29h-85.08Z" transform="translate(-67.33 -253.27)"/><path class="cls-1" d="M1225.44,347.77H1133l-9.35-13.94h113Zm-89.82-4.87h87.49l3.38-4.2H1132.8Z" transform="translate(-67.33 -253.27)"/><polygon class="cls-1" points="1060.41 82.94 1055.64 82.01 1063.73 40.58 1162.78 40.58 1169.54 82.09 1164.73 82.87 1158.64 45.45 1067.74 45.45 1060.41 82.94"/><rect class="cls-1" x="1164.25" y="480.32" width="97.17" height="2.43"/><rect class="cls-1" x="969.64" y="480.32" width="97.17" height="2.43"/><rect class="cls-1" x="1065.82" y="476.33" width="97.17" height="2.43"/><path class="cls-1" d="M1082.38,404.27a12,12,0,1,1,12-12A12,12,0,0,1,1082.38,404.27Zm0-21.55a9.56,9.56,0,1,0,9.56,9.56A9.57,9.57,0,0,0,1082.38,382.72Z" transform="translate(-67.33 -253.27)"/><path class="cls-1" d="M1100.44,410.33h-36.11V390.12h.15a18,18,0,0,1,35.8,0h.11l0,1.21Zm-33.67-2.44H1098l0-16.49a15.6,15.6,0,0,0-31.15,0l0,.82Z" transform="translate(-67.33 -253.27)"/><path class="cls-1" d="M1105.56,399h-13.93v-2.44h11.5v-3.91h-5.38l0-1.18a15.71,15.71,0,0,0-9.3-13.76l-5.28-2.33h3.21l-4.22-4.38-4.22,4.38h3.22l-5.29,2.33a15.71,15.71,0,0,0-9.3,13.76l0,1.18h-4.85v3.91h11.5V399h-13.93v-8.78h5a18.16,18.16,0,0,1,9.9-14.37l8-8.36,8,8.36a18.16,18.16,0,0,1,9.9,14.37h5.5Z" transform="translate(-67.33 -253.27)"/><path class="cls-1" d="M1278.82,403.48a12,12,0,1,1,12-12A12,12,0,0,1,1278.82,403.48Zm0-21.55a9.56,9.56,0,1,0,9.55,9.56A9.57,9.57,0,0,0,1278.82,381.93Z" transform="translate(-67.33 -253.27)"/><path class="cls-1" d="M1296.87,409.54h-36.1V389.33h.15a18,18,0,0,1,35.8,0h.1l0,1.21Zm-33.67-2.44h31.23l0-16.49a15.6,15.6,0,0,0-31.15,0l0,.82Z" transform="translate(-67.33 -253.27)"/><path class="cls-1" d="M1302,398.22h-13.93v-2.44h11.5v-3.91h-5.38l0-1.18a15.7,15.7,0,0,0-9.3-13.76l-5.28-2.33h3.21l-4.22-4.38-4.21,4.38h3.21l-5.28,2.33a15.7,15.7,0,0,0-9.3,13.76l0,1.18h-4.85v3.91h11.49v2.44h-13.93v-8.79h5a18.17,18.17,0,0,1,9.9-14.36l8-8.36,8,8.36a18.17,18.17,0,0,1,9.9,14.36H1302Z" transform="translate(-67.33 -253.27)"/><path class="cls-1" d="M1193.08,336.71a16.42,16.42,0,0,0-27.61-.62l-4-2.72a21.28,21.28,0,0,1,35.8.8Z" transform="translate(-67.33 -253.27)"/><rect class="cls-1" x="1165.46" y="504.63" width="97.17" height="2.43"/><rect class="cls-1" x="814.07" y="504.64" width="252.89" height="2.43"/><rect class="cls-1" x="1065.86" y="499.28" width="97.17" height="2.43"/><rect class="cls-1" x="1163.51" y="315.37" width="97.17" height="2.43"/><rect class="cls-1" x="1164.73" y="339.68" width="97.17" height="2.43"/><rect class="cls-1" x="969.79" y="314.53" width="95.06" height="2.43"/><rect class="cls-1" x="970.98" y="338.84" width="95.06" height="2.43"/><rect class="cls-1" x="1065.8" y="312.03" width="97.17" height="2.43"/><rect class="cls-1" x="1065.84" y="334.99" width="97.17" height="2.43"/><path class="cls-1" d="M1224.89,584.64h-86.78a1.22,1.22,0,0,1-1.22-1.22V571.91a1.21,1.21,0,0,1,1.22-1.21h86.78a1.21,1.21,0,0,1,1.21,1.21v11.51A1.22,1.22,0,0,1,1224.89,584.64Zm-85.57-2.43h84.35v-9.08h-84.35Z" transform="translate(-67.33 -253.27)"/><path class="cls-1" d="M1225.17,749.26h-86.78a1.21,1.21,0,0,1-1.22-1.22v-11.5a1.21,1.21,0,0,1,1.22-1.22h86.78a1.21,1.21,0,0,1,1.21,1.22V748A1.21,1.21,0,0,1,1225.17,749.26Zm-85.57-2.43H1224v-9.08H1139.6Z" transform="translate(-67.33 -253.27)"/><path class="cls-1" d="M1112,568.73" transform="translate(-67.33 -253.27)"/><rect class="cls-1" x="1043.45" y="251.91" width="2.43" height="57.45"/><path class="cls-1" d="M1060.52,494.34h-2.43v-4.92a27.57,27.57,0,1,1,55.13,0v4.83h-2.44v-4.83a25.13,25.13,0,1,0-50.26,0Z" transform="translate(-67.33 -253.27)"/><rect class="cls-1" x="990.76" y="251.89" width="2.43" height="57.87"/><path class="cls-1" d="M1059.3,568.73" transform="translate(-67.33 -253.27)"/><path class="cls-1" d="M1106.71,494.36h-2.43v-4.11a18.63,18.63,0,1,0-37.25,0v4h-2.43v-4a21.06,21.06,0,1,1,42.11,0Z" transform="translate(-67.33 -253.27)"/><rect class="cls-1" x="997.27" y="251.89" width="2.43" height="57.79"/><path class="cls-1" d="M1065.81,568.3" transform="translate(-67.33 -253.27)"/><path class="cls-1" d="M1105.49,568.3" transform="translate(-67.33 -253.27)"/><rect class="cls-1" x="1036.95" y="251.91" width="2.43" height="57.56"/><path class="cls-1" d="M1103.74,587.7h-36V572.48h36Zm-33.59-2.44h31.15V574.92h-31.15Z" transform="translate(-67.33 -253.27)"/><path class="cls-1" d="M1070.15,594.26h-17.51V566.88h17.51Zm-15.08-2.44h12.65V569.31h-12.65Z" transform="translate(-67.33 -253.27)"/><path class="cls-1" d="M1099.83,584.76h-28.29v-9.84h28.29ZM1074,582.32h23.43v-5H1074Z" transform="translate(-67.33 -253.27)"/><path class="cls-1" d="M1108.84,507.24a7.53,7.53,0,1,1,7.53-7.53A7.54,7.54,0,0,1,1108.84,507.24Zm0-12.63a5.1,5.1,0,1,0,5.1,5.1A5.11,5.11,0,0,0,1108.84,494.61Z" transform="translate(-67.33 -253.27)"/><path class="cls-1" d="M1062.62,507.24a7.53,7.53,0,1,1,7.53-7.53A7.53,7.53,0,0,1,1062.62,507.24Zm0-12.63a5.1,5.1,0,1,0,5.1,5.1A5.11,5.11,0,0,0,1062.62,494.61Z" transform="translate(-67.33 -253.27)"/><path class="cls-1" d="M1116.37,568.09h-2.43a5.1,5.1,0,0,0-10.2,0h-2.44a7.54,7.54,0,0,1,15.07,0Z" transform="translate(-67.33 -253.27)"/><path class="cls-1" d="M1070.15,568.4h-2.43a5.1,5.1,0,0,0-10.2,0h-2.43a7.53,7.53,0,1,1,15.06,0Z" transform="translate(-67.33 -253.27)"/><path class="cls-1" d="M1118.82,594.26H1101.3V566.88h17.52Zm-15.08-2.44h12.64V569.31h-12.64Z" transform="translate(-67.33 -253.27)"/><path class="cls-1" d="M1103.65,594.26h-36V569h36Zm-33.58-2.44h31.15V571.38h-31.15Z" transform="translate(-67.33 -253.27)"/><rect class="cls-1" x="1017" y="217.85" width="2.43" height="98.56"/><rect class="cls-1" x="1001.18" y="244.82" width="34.27" height="2.43"/><rect class="cls-1" x="999.35" y="268.35" width="37.92" height="2.43"/><rect class="cls-1" x="999.05" y="292.38" width="37.92" height="2.43"/><path class="cls-1" d="M1112,735.44" transform="translate(-67.33 -253.27)"/><rect class="cls-1" x="1043.45" y="418.62" width="2.43" height="57.45"/><path class="cls-1" d="M1060.52,661.05h-2.43v-4.92a27.57,27.57,0,1,1,55.13,0V661h-2.44v-4.83a25.13,25.13,0,1,0-50.26,0Z" transform="translate(-67.33 -253.27)"/><rect class="cls-1" x="990.76" y="418.6" width="2.43" height="57.87"/><path class="cls-1" d="M1059.3,735.44" transform="translate(-67.33 -253.27)"/><path class="cls-1" d="M1106.71,661.06h-2.43V657a18.63,18.63,0,0,0-37.25,0v4h-2.43v-4a21.06,21.06,0,0,1,42.11,0Z" transform="translate(-67.33 -253.27)"/><rect class="cls-1" x="997.27" y="418.6" width="2.43" height="57.79"/><path class="cls-1" d="M1065.81,735" transform="translate(-67.33 -253.27)"/><path class="cls-1" d="M1105.49,735" transform="translate(-67.33 -253.27)"/><rect class="cls-1" x="1036.95" y="418.62" width="2.43" height="57.56"/><path class="cls-1" d="M1103.74,754.4h-36V739.19h36ZM1070.15,752h31.15V741.63h-31.15Z" transform="translate(-67.33 -253.27)"/><path class="cls-1" d="M1070.15,761h-17.51V733.58h17.51Zm-15.08-2.43h12.65V736h-12.65Z" transform="translate(-67.33 -253.27)"/><path class="cls-1" d="M1099.83,751.46h-28.29v-9.83h28.29ZM1074,749h23.43v-5H1074Z" transform="translate(-67.33 -253.27)"/><path class="cls-1" d="M1108.84,674a7.53,7.53,0,1,1,7.53-7.53A7.54,7.54,0,0,1,1108.84,674Zm0-12.63a5.1,5.1,0,1,0,5.1,5.1A5.11,5.11,0,0,0,1108.84,661.32Z" transform="translate(-67.33 -253.27)"/><path class="cls-1" d="M1062.62,674a7.53,7.53,0,1,1,7.53-7.53A7.54,7.54,0,0,1,1062.62,674Zm0-12.63a5.1,5.1,0,1,0,5.1,5.1A5.11,5.11,0,0,0,1062.62,661.32Z" transform="translate(-67.33 -253.27)"/><path class="cls-1" d="M1116.37,734.8h-2.43a5.1,5.1,0,0,0-10.2,0h-2.44a7.54,7.54,0,0,1,15.07,0Z" transform="translate(-67.33 -253.27)"/><path class="cls-1" d="M1070.15,735.1h-2.43a5.1,5.1,0,0,0-10.2,0h-2.43a7.53,7.53,0,0,1,15.06,0Z" transform="translate(-67.33 -253.27)"/><path class="cls-1" d="M1118.82,761H1101.3V733.58h17.52Zm-15.08-2.43h12.64V736h-12.64Z" transform="translate(-67.33 -253.27)"/><path class="cls-1" d="M1103.65,761h-36V735.65h36Zm-33.58-2.43h31.15V738.09h-31.15Z" transform="translate(-67.33 -253.27)"/><rect class="cls-1" x="1017" y="384.56" width="2.43" height="98.56"/><rect class="cls-1" x="1001.18" y="411.53" width="34.27" height="2.43"/><rect class="cls-1" x="999.35" y="435.05" width="37.92" height="2.43"/><rect class="cls-1" x="999.05" y="459.09" width="37.92" height="2.43"/><path class="cls-1" d="M1305.48,570" transform="translate(-67.33 -253.27)"/><rect class="cls-1" x="1236.93" y="253.13" width="2.43" height="57.45"/><path class="cls-1" d="M1254,495.56h-2.44v-4.92a27.57,27.57,0,1,1,55.14,0v4.83h-2.44v-4.83a25.13,25.13,0,1,0-50.26,0Z" transform="translate(-67.33 -253.27)"/><rect class="cls-1" x="1184.23" y="253.11" width="2.43" height="57.87"/><path class="cls-1" d="M1252.78,570" transform="translate(-67.33 -253.27)"/><path class="cls-1" d="M1300.19,495.57h-2.44v-4.11a18.62,18.62,0,1,0-37.24,0v4h-2.44v-4a21.06,21.06,0,0,1,42.12,0Z" transform="translate(-67.33 -253.27)"/><rect class="cls-1" x="1190.74" y="253.11" width="2.43" height="57.79"/><path class="cls-1" d="M1259.29,569.51" transform="translate(-67.33 -253.27)"/><path class="cls-1" d="M1299,569.51" transform="translate(-67.33 -253.27)"/><rect class="cls-1" x="1230.42" y="253.13" width="2.43" height="57.56"/><path class="cls-1" d="M1297.22,588.91h-36V573.7h36Zm-33.59-2.43h31.15V576.14h-31.15Z" transform="translate(-67.33 -253.27)"/><path class="cls-1" d="M1263.63,595.47h-17.51V568.09h17.51ZM1248.55,593h12.65V570.53h-12.65Z" transform="translate(-67.33 -253.27)"/><path class="cls-1" d="M1293.31,586H1265v-9.83h28.29Zm-25.86-2.43h23.43v-5h-23.43Z" transform="translate(-67.33 -253.27)"/><path class="cls-1" d="M1302.31,508.46a7.53,7.53,0,1,1,7.54-7.53A7.54,7.54,0,0,1,1302.31,508.46Zm0-12.63a5.1,5.1,0,1,0,5.1,5.1A5.1,5.1,0,0,0,1302.31,495.83Z" transform="translate(-67.33 -253.27)"/><path class="cls-1" d="M1256.1,508.46a7.53,7.53,0,1,1,7.53-7.53A7.53,7.53,0,0,1,1256.1,508.46Zm0-12.63a5.1,5.1,0,1,0,5.1,5.1A5.11,5.11,0,0,0,1256.1,495.83Z" transform="translate(-67.33 -253.27)"/><path class="cls-1" d="M1309.85,569.31h-2.44a5.1,5.1,0,1,0-10.19,0h-2.44a7.54,7.54,0,0,1,15.07,0Z" transform="translate(-67.33 -253.27)"/><path class="cls-1" d="M1263.63,569.61h-2.43a5.1,5.1,0,0,0-10.2,0h-2.43a7.53,7.53,0,0,1,15.06,0Z" transform="translate(-67.33 -253.27)"/><path class="cls-1" d="M1312.29,595.47h-17.51V568.09h17.51ZM1297.22,593h12.64V570.53h-12.64Z" transform="translate(-67.33 -253.27)"/><path class="cls-1" d="M1297.13,595.47h-36V570.16h36ZM1263.55,593h31.15V572.6h-31.15Z" transform="translate(-67.33 -253.27)"/><rect class="cls-1" x="1210.48" y="219.07" width="2.43" height="98.56"/><rect class="cls-1" x="1194.66" y="246.04" width="34.27" height="2.43"/><rect class="cls-1" x="1192.83" y="269.56" width="37.92" height="2.43"/><rect class="cls-1" x="1192.53" y="293.6" width="37.92" height="2.43"/><path class="cls-1" d="M1306.08,734" transform="translate(-67.33 -253.27)"/><rect class="cls-1" x="1237.53" y="417.17" width="2.43" height="57.45"/><path class="cls-1" d="M1254.6,659.6h-2.44v-4.92a27.57,27.57,0,1,1,55.14,0v4.83h-2.44v-4.83a25.13,25.13,0,1,0-50.26,0Z" transform="translate(-67.33 -253.27)"/><rect class="cls-1" x="1184.83" y="417.15" width="2.43" height="57.87"/><path class="cls-1" d="M1253.38,734" transform="translate(-67.33 -253.27)"/><path class="cls-1" d="M1300.79,659.62h-2.44v-4.11a18.62,18.62,0,1,0-37.24,0v4h-2.44v-4a21.06,21.06,0,0,1,42.12,0Z" transform="translate(-67.33 -253.27)"/><rect class="cls-1" x="1191.34" y="417.15" width="2.43" height="57.79"/><path class="cls-1" d="M1259.89,733.56" transform="translate(-67.33 -253.27)"/><path class="cls-1" d="M1299.57,733.56" transform="translate(-67.33 -253.27)"/><rect class="cls-1" x="1231.02" y="417.17" width="2.43" height="57.56"/><path class="cls-1" d="M1297.82,753h-36V737.74h36Zm-33.59-2.44h31.15V740.18h-31.15Z" transform="translate(-67.33 -253.27)"/><path class="cls-1" d="M1264.23,759.52h-17.51V732.14h17.51Zm-15.08-2.44h12.65V734.57h-12.65Z" transform="translate(-67.33 -253.27)"/><path class="cls-1" d="M1293.91,750h-28.29v-9.83h28.29Zm-25.86-2.43h23.43v-5h-23.43Z" transform="translate(-67.33 -253.27)"/><path class="cls-1" d="M1302.91,672.5a7.53,7.53,0,1,1,7.54-7.53A7.53,7.53,0,0,1,1302.91,672.5Zm0-12.63a5.1,5.1,0,1,0,5.1,5.1A5.1,5.1,0,0,0,1302.91,659.87Z" transform="translate(-67.33 -253.27)"/><path class="cls-1" d="M1256.7,672.5a7.53,7.53,0,1,1,7.53-7.53A7.53,7.53,0,0,1,1256.7,672.5Zm0-12.63a5.1,5.1,0,1,0,5.1,5.1A5.11,5.11,0,0,0,1256.7,659.87Z" transform="translate(-67.33 -253.27)"/><path class="cls-1" d="M1310.45,733.35H1308a5.1,5.1,0,1,0-10.19,0h-2.44a7.54,7.54,0,0,1,15.07,0Z" transform="translate(-67.33 -253.27)"/><path class="cls-1" d="M1264.23,733.66h-2.43a5.1,5.1,0,1,0-10.2,0h-2.43a7.53,7.53,0,1,1,15.06,0Z" transform="translate(-67.33 -253.27)"/><path class="cls-1" d="M1312.89,759.52h-17.51V732.14h17.51Zm-15.07-2.44h12.64V734.57h-12.64Z" transform="translate(-67.33 -253.27)"/><path class="cls-1" d="M1297.73,759.52h-36V734.2h36Zm-33.58-2.44h31.15V736.64h-31.15Z" transform="translate(-67.33 -253.27)"/><rect class="cls-1" x="1211.08" y="383.11" width="2.43" height="98.56"/><rect class="cls-1" x="1195.26" y="410.08" width="34.27" height="2.43"/><rect class="cls-1" x="1193.43" y="433.61" width="37.92" height="2.43"/><rect class="cls-1" x="1193.13" y="457.64" width="37.92" height="2.43"/></svg>